<svg width="40" height="40" fill="none" xmlns="http://www.w3.org/2000/svg"><circle cx="20" cy="20" r="20" fill="#7895A6"/><path d="M21.459 14.768c-1.207 0-2.156.427-2.848 1.283-.691.855-1.037 2.036-1.037 3.542 0 1.576.331 2.768.993 3.577.668.808 1.632 1.213 2.892 1.213.545 0 1.072-.053 1.582-.158.51-.112 1.04-.252 1.59-.422v1.802c-1.007.38-2.15.57-3.427.57-1.88 0-3.325-.568-4.333-1.704-1.008-1.143-1.512-2.775-1.512-4.896 0-1.336.243-2.505.73-3.507.492-1.002 1.201-1.77 2.127-2.302.926-.534 2.012-.8 3.26-.8 1.313 0 2.526.275 3.64.826l-.757 1.749a10.706 10.706 0 00-1.38-.536 4.83 4.83 0 00-1.52-.237z" fill="#fff"/></svg>