<svg width="80" height="80" viewBox="0 0 80 80" fill="none" xmlns="http://www.w3.org/2000/svg">
<path d="M40.467 2.50633C40.4366 2.50553 40.406 2.50542 40.3755 2.50477C40.2872 2.50345 40.1993 2.50061 40.1108 2.50023C40.0739 2.50008 40.0371 2.5 40.0002 2.5H39.9991C33.3688 2.50022 27.0102 5.13424 22.322 9.82263C17.6338 14.511 15 20.8697 15 27.5C15 40.2725 17.2386 51.2222 21.6537 60.0449C25.9206 68.5712 31.1375 72.8409 33.8675 74.6271C35.6877 75.8192 37.8158 76.455 39.9916 76.4566C42.1674 76.4582 44.2965 75.8256 46.1185 74.6362C48.8387 72.8587 54.0389 68.6098 58.3045 60.1248C62.7164 51.3489 64.969 40.4604 64.9997 27.7619C65.033 14.0123 54.0601 2.75829 40.467 2.50633ZM58.75 15.1717V20C58.7509 23.569 57.9787 27.0959 56.4867 30.3381C56.1122 29.7651 55.6466 29.2572 55.1083 28.8343C56.737 26.049 57.5635 22.8673 57.4962 19.6415C57.4289 16.4156 56.4706 13.2712 54.7271 10.5562C56.2691 11.9072 57.6222 13.4597 58.75 15.1717V15.1717ZM40 45.8384L32.0731 40.4482C31.6784 40.1798 31.2935 39.901 30.9182 39.6117C32.3984 39.0596 33.6164 37.9703 34.3297 36.5607C38.0062 37.8131 41.9939 37.8131 45.6703 36.5607C46.3836 37.9703 47.6016 39.0596 49.0818 39.6117C48.706 39.9001 48.321 40.179 47.9269 40.4482L40 45.8384ZM25 20C25.0045 16.0231 26.5863 12.2105 29.3983 9.39839C32.2104 6.58632 36.0231 5.00451 39.9999 5H40.0002C40.1115 5 40.2224 5.0018 40.3333 5.00423C40.3548 5.00455 40.3763 5.00496 40.3979 5.00534C40.5899 5.01037 40.7808 5.02007 40.971 5.03229C40.6715 5.1007 40.4077 5.27703 40.23 5.5276C40.0523 5.77818 39.9731 6.08543 40.0076 6.39069C40.0421 6.69594 40.1878 6.9778 40.4169 7.18243C40.646 7.38706 40.9425 7.50011 41.2497 7.5C41.5811 7.50038 41.8988 7.6322 42.1332 7.86654C42.3675 8.10087 42.4993 8.4186 42.4997 8.75V10C42.4993 10.3314 42.3675 10.6491 42.1332 10.8835C41.8988 11.1178 41.5811 11.2496 41.2497 11.25H38.1247C37.9589 11.25 37.8 11.1842 37.6828 11.0669C37.5655 10.9497 37.4997 10.7908 37.4997 10.625C37.4997 10.4592 37.5655 10.3003 37.6828 10.1831C37.8 10.0658 37.9589 10 38.1247 10H38.7497C39.0812 10 39.3992 9.8683 39.6336 9.63388C39.868 9.39946 39.9997 9.08152 39.9997 8.75C39.9997 8.41848 39.868 8.10054 39.6336 7.86612C39.3992 7.6317 39.0812 7.5 38.7497 7.5H38.1247C37.2959 7.5 36.501 7.82924 35.915 8.41529C35.3289 9.00134 34.9997 9.7962 34.9997 10.625C34.9997 11.4538 35.3289 12.2487 35.915 12.8347C36.501 13.4208 37.2959 13.75 38.1247 13.75H41.2497C42.2439 13.7489 43.1971 13.3534 43.9001 12.6504C44.6031 11.9474 44.9986 10.9942 44.9997 10V8.75C44.9987 7.96903 44.7542 7.2078 44.3003 6.57226C43.8465 5.93671 43.2058 5.45846 42.4674 5.20406C44.8783 5.60598 47.1544 6.59098 49.0977 8.07333C51.041 9.55569 52.5927 11.4905 53.6176 13.7094C54.6425 15.9282 55.1096 18.364 54.9784 20.8046C54.8471 23.2452 54.1214 25.6168 52.8643 27.7129C51.9385 27.4648 50.968 27.4331 50.0279 27.6201C49.0879 27.8072 48.2035 28.2081 47.4431 28.7917C46.6828 29.3754 46.067 30.1262 45.6434 30.986C45.2197 31.8458 44.9996 32.7915 45 33.75C45 33.8814 45.0054 34.0116 45.0135 34.141C41.7693 35.2863 38.2307 35.2863 34.9865 34.141C34.9946 34.0116 35 33.8814 35 33.75C35.0004 32.7915 34.7803 31.8458 34.3566 30.986C33.933 30.1262 33.3172 29.3754 32.5569 28.7917C31.7965 28.2081 30.9121 27.8072 29.9721 27.6201C29.032 27.4331 28.0615 27.4648 27.1357 27.7129C25.734 25.3847 24.9955 22.7176 25 20V20ZM28.75 30C29.7446 30 30.6984 30.3951 31.4017 31.0983C32.1049 31.8016 32.5 32.7554 32.5 33.75C32.5 34.7446 32.1049 35.6984 31.4017 36.4017C30.6984 37.1049 29.7446 37.5 28.75 37.5C28.6651 37.5 28.5807 37.4952 28.4964 37.4895C27.1874 36.1813 26.0296 34.7302 25.0448 33.1633C25.1851 32.2815 25.6352 31.4785 26.3143 30.8987C26.9934 30.3189 27.857 30.0003 28.75 30V30ZM51.5036 37.4895C51.4193 37.4952 51.3349 37.5 51.25 37.5C50.5334 37.4997 49.832 37.2942 49.2286 36.9077C48.6252 36.5212 48.1452 35.9699 47.8454 35.3191C47.5456 34.6682 47.4385 33.9452 47.5368 33.2354C47.6352 32.5256 47.9348 31.8589 48.4003 31.3141C48.8657 30.7693 49.4775 30.3692 50.1632 30.1613C50.849 29.9534 51.5799 29.9463 52.2696 30.1409C52.9592 30.3354 53.5786 30.7235 54.0546 31.2592C54.5306 31.7948 54.8431 32.4556 54.9552 33.1633C53.9704 34.7302 52.8126 36.1813 51.5036 37.4895V37.4895ZM24.1249 11.5554C24.5299 11.1522 24.9472 10.7665 25.3769 10.3983C23.5861 13.1208 22.5918 16.2896 22.5061 19.5471C22.4203 22.8046 23.2466 26.0213 24.8917 28.8343C24.3534 29.2572 23.8878 29.7651 23.5133 30.3381C22.0213 27.0959 21.2491 23.569 21.25 20V15.0508C22.0896 13.7929 23.0527 12.622 24.1249 11.5554V11.5554ZM44.751 72.5435C43.3358 73.467 41.6822 73.9581 39.9923 73.9566C38.3025 73.9551 36.6497 73.4611 35.2362 72.5351C32.7171 70.8869 27.8934 66.9273 23.8893 58.9261C19.6497 50.4539 17.5 39.8806 17.5 27.5C17.4969 24.9706 17.9199 22.4587 18.7511 20.0697C18.7602 24.4984 19.8505 28.8579 21.9271 32.7696C24.0038 36.6812 27.0041 40.0267 30.6674 42.5154L39.1769 48.3019C42.4068 50.496 45.0706 53.4245 46.9499 56.8471C48.8292 60.2698 49.8705 64.0891 49.9883 67.992C48.44 69.7225 46.6805 71.2516 44.751 72.5435V72.5435ZM56.0709 59.0019C54.9848 61.179 53.7126 63.2582 52.2684 65.2162C51.351 58.1846 47.7232 51.7895 42.1585 47.3942L49.3326 42.5154C52.9726 40.0422 55.9583 36.7228 58.0334 32.842C60.1084 28.9613 61.211 24.6349 61.2464 20.2343C62.0841 22.6532 62.5078 25.196 62.4997 27.7557C62.4699 40.0629 60.307 50.5757 56.0709 59.0019V59.0019Z" fill="#0098D0"/>
<path d="M31.2497 17.7145C31.5499 17.7137 31.8474 17.7724 32.1248 17.8873C32.4022 18.0022 32.654 18.171 32.8657 18.3839C33.1001 18.6183 33.4181 18.75 33.7496 18.75C34.0811 18.7501 34.3991 18.6184 34.6335 18.384C34.868 18.1495 34.9997 17.8316 34.9997 17.5001C34.9997 17.1685 34.868 16.8506 34.6336 16.6161C33.7362 15.7187 32.519 15.2145 31.2498 15.2145C29.9806 15.2145 28.7634 15.7186 27.8659 16.6161C27.7497 16.7321 27.6575 16.8699 27.5946 17.0216C27.5316 17.1733 27.4992 17.3359 27.4991 17.5001C27.4991 17.6643 27.5314 17.8269 27.5942 17.9786C27.657 18.1304 27.7491 18.2682 27.8652 18.3844C27.9813 18.5005 28.1191 18.5926 28.2709 18.6554C28.4226 18.7183 28.5852 18.7506 28.7494 18.7505C28.9136 18.7505 29.0762 18.7181 29.2279 18.6552C29.3796 18.5923 29.5174 18.5001 29.6335 18.384C29.8452 18.171 30.0971 18.0022 30.3745 17.8873C30.6519 17.7724 30.9494 17.7137 31.2497 17.7145V17.7145Z" fill="#0098D0"/>
<path d="M47.1335 18.384C47.3457 18.1717 47.5976 18.0034 47.8749 17.8885C48.1522 17.7736 48.4494 17.7145 48.7496 17.7145C49.0497 17.7145 49.3469 17.7736 49.6242 17.8884C49.9015 18.0033 50.1535 18.1716 50.3657 18.3839C50.6001 18.6183 50.9181 18.75 51.2496 18.75C51.5811 18.7501 51.8991 18.6184 52.1335 18.384C52.368 18.1495 52.4997 17.8316 52.4997 17.5001C52.4997 17.1685 52.368 16.8506 52.1336 16.6161C51.2362 15.7187 50.019 15.2145 48.7498 15.2145C47.4806 15.2145 46.2634 15.7186 45.3659 16.6161C45.2497 16.7321 45.1575 16.8699 45.0946 17.0216C45.0316 17.1733 44.9992 17.3359 44.9991 17.5001C44.9991 17.6643 45.0314 17.8269 45.0942 17.9786C45.157 18.1304 45.2491 18.2682 45.3652 18.3844C45.4813 18.5005 45.6191 18.5926 45.7709 18.6554C45.9226 18.7183 46.0852 18.7506 46.2494 18.7505C46.4136 18.7505 46.5762 18.7181 46.7279 18.6552C46.8796 18.5923 47.0174 18.5001 47.1335 18.384V18.384Z" fill="#0098D0"/>
<path d="M38.7498 21.25C38.914 21.2502 39.0766 21.2179 39.2284 21.1551C39.3801 21.0922 39.5179 21 39.6339 20.8838C39.7309 20.7867 39.8625 20.7322 39.9998 20.7322C40.137 20.7322 40.2686 20.7867 40.3657 20.8837C40.4817 20.9998 40.6195 21.0919 40.7712 21.1547C40.9228 21.2175 41.0854 21.2499 41.2495 21.2499C41.4137 21.2499 41.5762 21.2176 41.7279 21.1548C41.8795 21.092 42.0173 20.9999 42.1334 20.8838C42.2495 20.7678 42.3416 20.63 42.4044 20.4783C42.4672 20.3267 42.4996 20.1642 42.4996 20C42.4996 19.8359 42.4673 19.6733 42.4045 19.5217C42.3417 19.37 42.2496 19.2322 42.1336 19.1161C41.8534 18.8359 41.5207 18.6136 41.1546 18.4619C40.7884 18.3102 40.396 18.2322 39.9997 18.2322C39.6034 18.2322 39.211 18.3103 38.8448 18.4619C38.4787 18.6136 38.146 18.8359 37.8658 19.1162C37.6911 19.291 37.5721 19.5137 37.5239 19.7562C37.4757 19.9987 37.5004 20.25 37.595 20.4784C37.6897 20.7067 37.8499 20.9019 38.0554 21.0393C38.2609 21.1766 38.5026 21.25 38.7498 21.25V21.25Z" fill="#0098D0"/>
<path d="M35.8545 26.1857C38.5462 27.0768 41.4534 27.0768 44.1451 26.1857C44.3008 26.1338 44.4448 26.0517 44.5688 25.9442C44.6928 25.8366 44.7944 25.7057 44.8678 25.5588C44.9412 25.412 44.985 25.2522 44.9966 25.0884C45.0082 24.9247 44.9875 24.7603 44.9356 24.6045C44.8837 24.4488 44.8016 24.3048 44.694 24.1808C44.5865 24.0568 44.4555 23.9552 44.3087 23.8818C44.1619 23.8084 44.002 23.7646 43.8383 23.753C43.6745 23.7414 43.5101 23.7621 43.3544 23.814C41.176 24.5352 38.8233 24.5352 36.6449 23.814C36.4892 23.7621 36.3248 23.7414 36.161 23.7531C35.9973 23.7647 35.8375 23.8085 35.6907 23.8819C35.5438 23.9553 35.4129 24.057 35.3054 24.181C35.1978 24.305 35.1158 24.449 35.0639 24.6047C35.012 24.7604 34.9913 24.9248 35.0029 25.0886C35.0146 25.2523 35.0583 25.4121 35.1317 25.5589C35.2052 25.7058 35.3068 25.8367 35.4308 25.9442C35.5548 26.0518 35.6988 26.1338 35.8545 26.1857Z" fill="#0098D0"/>
</svg>
