<svg width="56" height="56" fill="none" xmlns="http://www.w3.org/2000/svg"><path fill-rule="evenodd" clip-rule="evenodd" d="M42.503 18.69c1.012 0 1.832.903 1.832 2.017 0 1.115-.82 2.018-1.832 2.018-1.01 0-1.831-.903-1.831-2.018 0-1.114.82-2.018 1.831-2.018zm0 5.25c1.012 0 1.832.904 1.832 2.019 0 1.115-.82 2.018-1.832 2.018-1.01 0-1.831-.903-1.831-2.018 0-1.115.82-2.02 1.831-2.02zm1.673-.607c.749.58 1.238 1.54 1.238 2.626 0 1.771-1.303 3.208-2.911 3.208s-2.91-1.437-2.91-3.208c0-1.087.489-2.046 1.237-2.626-.748-.58-1.238-1.54-1.238-2.626 0-1.771 1.303-3.207 2.911-3.207s2.911 1.436 2.911 3.207c0 1.086-.49 2.046-1.238 2.626zM27.366 17.5a9.876 9.876 0 018.063 4.165l-1.56 1.44a7.786 7.786 0 00-6.503-3.5c-4.306 0-7.798 3.497-7.798 7.812 0 4.313 3.492 7.81 7.798 7.81 3.651 0 6.717-2.516 7.564-5.912h-6.585v-1.976h6.816v-.002l2.102-.005v.084c0 5.476-4.432 9.917-9.897 9.917-5.467 0-9.899-4.44-9.899-9.917 0-5.477 4.431-9.916 9.899-9.916z" fill="#039AD4"/><path fill-rule="evenodd" clip-rule="evenodd" d="M27.948 5.803c12.235 0 22.155 9.938 22.155 22.197 0 12.259-9.92 22.196-22.155 22.196C15.712 50.196 5.793 40.26 5.793 28c0-12.26 9.919-22.197 22.155-22.197zm0-5.803c15.434 0 27.947 12.536 27.947 28S43.382 56 27.948 56C12.513 56 0 43.464 0 28 0 12.537 12.513 0 27.948 0z" fill="#039AD4"/></svg>