<svg width="32" height="32" fill="none" xmlns="http://www.w3.org/2000/svg"><path d="M28.586 6.121h.988a.625.625 0 000-1.25h-2.373a.625.625 0 00-.625.625V7.87a.625.625 0 001.25 0v-.687A14.703 14.703 0 0130.75 16c0 8.134-6.617 14.75-14.751 14.75S1.25 24.135 1.25 16 7.865 1.25 16 1.25c.602 0 1.207.036 1.8.108a.625.625 0 00.15-1.24A16.225 16.225 0 0016 0 15.895 15.895 0 004.686 4.686 15.895 15.895 0 000 16c0 4.274 1.664 8.292 4.686 11.314A15.895 15.895 0 0016 32c4.274 0 8.292-1.664 11.314-4.686A15.895 15.895 0 0032 16a15.95 15.95 0 00-3.414-9.879z" fill="#C3167C"/><path d="M6.775 9.432a.625.625 0 00-.862.194 11.975 11.975 0 00-1.777 7.626 11.957 11.957 0 003.428 7.184A11.893 11.893 0 0016 27.924c3.055 0 6.11-1.163 8.436-3.488 4.65-4.652 4.65-12.22 0-16.871a11.958 11.958 0 00-7.173-3.428A11.976 11.976 0 009.646 5.9a.625.625 0 00.666 1.057c4.243-2.674 9.688-2.061 13.24 1.49 4.164 4.165 4.164 10.941 0 15.105-4.164 4.165-10.94 4.165-15.104 0-3.504-3.503-4.126-9.079-1.48-13.258a.625.625 0 00-.193-.862z" fill="#C3167C"/><path d="M24.12 16.635h.77a.625.625 0 000-1.25h-.77a.625.625 0 000 1.25zM6.485 15.99c0 .345.28.624.625.624h.77a.625.625 0 000-1.249h-.77a.625.625 0 00-.625.625zm10.15-8.11v-.77a.625.625 0 00-1.25 0v.77a.625.625 0 001.25 0zm-1.27 16.24v.77a.625.625 0 001.25 0v-.77a.625.625 0 00-1.25 0zM12.87 11.986a.625.625 0 00-.884.883l2.117 2.117A2.154 2.154 0 0016 18.152a2.154 2.154 0 001.898-3.166l4.27-4.271a.625.625 0 00-.883-.883l-4.27 4.27a2.138 2.138 0 00-2.029 0l-2.117-2.116zM16.902 16a.904.904 0 01-1.805 0 .904.904 0 011.805 0zM8.448 8.447a.627.627 0 00.183-.441.628.628 0 00-.625-.625.63.63 0 00-.442.183.628.628 0 00.442 1.066.629.629 0 00.442-.183zm11.879-6.581a.627.627 0 00.625-.624.629.629 0 00-.625-.625.63.63 0 00-.625.625.628.628 0 00.625.624z" fill="#C3167C"/></svg>