<svg width="1504" height="56" fill="none" xmlns="http://www.w3.org/2000/svg"><path d="M67.281 33.5h-2.414v-9.406h-4.203V33.5h-2.422V22.078h9.04V33.5zm7.492.156c-1.026 0-1.83-.372-2.414-1.117h-.125c.084.73.125 1.151.125 1.266v3.539h-2.382V24.766h1.937l.336 1.132h.11c.557-.864 1.382-1.296 2.476-1.296 1.031 0 1.838.398 2.422 1.195.583.797.875 1.904.875 3.32 0 .932-.138 1.742-.414 2.43-.271.687-.66 1.21-1.164 1.57-.506.36-1.1.54-1.782.54zm-.703-7.148c-.588 0-1.018.182-1.289.547-.27.36-.411.955-.422 1.789v.258c0 .937.138 1.609.414 2.015.282.406.724.61 1.329.61 1.067 0 1.601-.88 1.601-2.641 0-.86-.133-1.503-.398-1.93-.26-.432-.672-.648-1.235-.648zm9.649-.211c-.505 0-.901.161-1.188.484-.286.318-.45.771-.492 1.36h3.344c-.01-.589-.164-1.042-.461-1.36-.297-.323-.698-.484-1.203-.484zm.336 7.36c-1.407 0-2.506-.389-3.297-1.165-.792-.776-1.188-1.875-1.188-3.297 0-1.463.365-2.593 1.094-3.39.734-.802 1.748-1.203 3.04-1.203 1.234 0 2.194.351 2.882 1.054.687.703 1.031 1.675 1.031 2.914v1.157h-5.633c.026.677.227 1.205.602 1.585.375.38.901.57 1.578.57.526 0 1.023-.054 1.492-.163a7.47 7.47 0 001.469-.524v1.844a5.48 5.48 0 01-1.336.461c-.474.104-1.052.156-1.734.156zm10.968-1.9v-5.202h-1.789c-.13.968-.31 1.888-.539 2.758a11.21 11.21 0 01-.937 2.445h3.265zm3.665 4.876h-2.141V33.5h-5.875v3.133h-2.14v-4.875h.734c.5-.776.919-1.755 1.257-2.938.339-1.182.576-2.534.711-4.054h6.172v6.992h1.281v4.875zm3.874-8.492h1.149c1.333 0 2.32.213 2.961.64.64.427.961 1.073.961 1.938 0 .922-.321 1.617-.961 2.086-.641.463-1.599.695-2.875.695h-3.617v-8.734h2.382v3.375zm2.688 2.609c0-.338-.135-.583-.406-.734-.271-.151-.675-.227-1.211-.227h-1.071v2.063h1.102c1.057 0 1.586-.368 1.586-1.102zm6.031 2.75h-2.383v-8.734h2.383V33.5zm7.977-1.742v-5.203h-1.789c-.13.968-.31 1.888-.539 2.758a11.22 11.22 0 01-.938 2.445h3.266zm3.664 4.875h-2.141V33.5h-5.875v3.133h-2.14v-4.875h.734c.5-.776.919-1.755 1.258-2.938.338-1.182.575-2.534.711-4.054h6.172v6.992h1.281v4.875zm.242-11.867h2.609l1.649 4.914c.14.427.237.932.289 1.515h.047a6.664 6.664 0 01.336-1.515l1.617-4.914h2.555l-3.696 9.851c-.338.912-.823 1.594-1.453 2.047-.625.453-1.357.68-2.195.68a5.5 5.5 0 01-1.211-.133v-1.89c.286.067.599.1.937.1.422 0 .79-.13 1.102-.39.318-.255.565-.643.742-1.164l.141-.43-3.469-8.671zm23.367 6.992h1.281v4.875h-2.148V33.5h-12.141v-8.734h2.383v6.945h2.93v-6.945h2.383v6.945h2.929v-6.945h2.383v6.992zm8.305 1.742l-.461-1.188h-.063c-.401.506-.815.857-1.242 1.055-.422.193-.974.29-1.656.29-.838 0-1.5-.24-1.984-.72-.479-.479-.719-1.161-.719-2.046 0-.927.323-1.61.969-2.047.651-.443 1.63-.688 2.937-.735l1.516-.047v-.382c0-.886-.453-1.328-1.36-1.328-.697 0-1.518.21-2.461.632l-.789-1.609c1.006-.526 2.12-.79 3.344-.79 1.172 0 2.071.256 2.695.767.626.51.938 1.286.938 2.328v5.82h-1.664zm-.703-4.047l-.922.031c-.693.021-1.208.146-1.547.375-.338.23-.508.578-.508 1.047 0 .672.386 1.008 1.156 1.008.553 0 .993-.159 1.321-.477.333-.317.5-.74.5-1.265v-.719zm6.156 4.047h-2.578l2.351-3.453c-.562-.235-.989-.573-1.281-1.016-.286-.442-.429-.963-.429-1.562 0-.844.315-1.506.945-1.985.635-.479 1.5-.718 2.594-.718h4.062V33.5h-2.383v-3.25h-1.312l-1.969 3.25zm.399-6.016c0 .365.143.651.429.86.287.203.662.304 1.125.304h1.328v-2.203h-1.632c-.391 0-.698.097-.922.29-.219.187-.328.437-.328.75zM4 1h216v-2H4v2zm219 3v48h2V4h-2zm-3 51H4v2h216v-2zM1 52V4h-2v48h2zm3 3a3 3 0 01-3-3h-2a5 5 0 005 5v-2zm219-3a3 3 0 01-3 3v2a5 5 0 005-5h-2zm-3-51a3 3 0 013 3h2a5 5 0 00-5-5v2zM4-1a5 5 0 00-5 5h2a3 3 0 013-3v-2z" fill="#0098D0"/><path d="M306.039 33.5h-2.414v-6.61l.023-1.085.04-1.188c-.402.401-.68.664-.836.79l-1.313 1.054-1.164-1.453 3.68-2.93h1.984V33.5z" fill="#334257"/><path d="M260 1h88v-2h-88v2zm91 3v48h2V4h-2zm-3 51h-88v2h88v-2zm-91-3V4h-2v48h2zm3 3a3 3 0 01-3-3h-2a5 5 0 005 5v-2zm91-3a3 3 0 01-3 3v2a5 5 0 005-5h-2zm-3-51a3 3 0 013 3h2a5 5 0 00-5-5v2zm-88-2a5 5 0 00-5 5h2a3 3 0 013-3v-2z" fill="#E8EAED"/><path d="M436.055 33.5h-7.985v-1.68l2.868-2.898c.848-.87 1.403-1.471 1.664-1.805.26-.338.447-.65.562-.937.115-.287.172-.584.172-.89 0-.46-.128-.8-.383-1.024-.25-.224-.586-.336-1.008-.336-.442 0-.872.101-1.289.304a6.664 6.664 0 00-1.304.868l-1.313-1.555c.563-.48 1.029-.818 1.399-1.016a5.006 5.006 0 011.21-.453c.438-.11.928-.164 1.469-.164.714 0 1.344.13 1.891.39.547.261.971.626 1.273 1.094.302.47.453 1.006.453 1.61a3.91 3.91 0 01-.281 1.484c-.182.459-.469.93-.859 1.414-.386.485-1.068 1.175-2.047 2.07l-1.469 1.383v.11h4.977V33.5z" fill="#334257"/><path d="M388 1h88v-2h-88v2zm91 3v48h2V4h-2zm-3 51h-88v2h88v-2zm-91-3V4h-2v48h2zm3 3a3 3 0 01-3-3h-2a5 5 0 005 5v-2zm91-3a3 3 0 01-3 3v2a5 5 0 005-5h-2zm-3-51a3 3 0 013 3h2a5 5 0 00-5-5v2zm-88-2a5 5 0 00-5 5h2a3 3 0 013-3v-2z" fill="#E8EAED"/><path d="M563.609 24.633c0 .713-.216 1.32-.648 1.82-.432.5-1.039.844-1.82 1.031v.047c.921.115 1.619.396 2.093.844.474.443.711 1.042.711 1.797 0 1.099-.398 1.956-1.195 2.57-.797.61-1.935.914-3.414.914-1.24 0-2.339-.206-3.297-.617v-2.055c.443.224.93.407 1.461.547.531.14 1.057.211 1.578.211.797 0 1.386-.135 1.766-.406.38-.27.57-.706.57-1.305 0-.536-.219-.916-.656-1.14-.438-.224-1.136-.336-2.094-.336h-.867v-1.852h.883c.885 0 1.531-.114 1.937-.344.412-.234.617-.632.617-1.195 0-.865-.541-1.297-1.625-1.297-.375 0-.757.063-1.148.188-.385.125-.815.34-1.289.648l-1.117-1.664c1.041-.75 2.284-1.125 3.726-1.125 1.183 0 2.115.24 2.797.719.688.479 1.031 1.146 1.031 2z" fill="#334257"/><path d="M516 1h88v-2h-88v2zm91 3v48h2V4h-2zm-3 51h-88v2h88v-2zm-91-3V4h-2v48h2zm3 3a3 3 0 01-3-3h-2a5 5 0 005 5v-2zm91-3a3 3 0 01-3 3v2a5 5 0 005-5h-2zm-3-51a3 3 0 013 3h2a5 5 0 00-5-5v2zm-88-2a5 5 0 00-5 5h2a3 3 0 013-3v-2z" fill="#E8EAED"/><path d="M692.312 31.133h-1.374V33.5h-2.36v-2.367h-4.875v-1.68l5.008-7.375h2.227v7.18h1.374v1.875zm-3.734-1.875V27.32c0-.323.013-.791.039-1.406.026-.615.047-.971.063-1.07h-.063a8.73 8.73 0 01-.695 1.25l-2.094 3.164h2.75z" fill="#334257"/><path d="M644 1h88v-2h-88v2zm91 3v48h2V4h-2zm-3 51h-88v2h88v-2zm-91-3V4h-2v48h2zm3 3a3 3 0 01-3-3h-2a5 5 0 005 5v-2zm91-3a3 3 0 01-3 3v2a5 5 0 005-5h-2zm-3-51a3 3 0 013 3h2a5 5 0 00-5-5v2zm-88-2a5 5 0 00-5 5h2a3 3 0 013-3v-2z" fill="#E8EAED"/><path d="M816.227 26.203c1.104 0 1.981.31 2.632.93.657.62.985 1.469.985 2.547 0 1.276-.393 2.258-1.18 2.945-.786.688-1.911 1.031-3.375 1.031-1.271 0-2.297-.206-3.078-.617v-2.086c.411.219.891.399 1.437.54a6.483 6.483 0 001.555.202c1.474 0 2.211-.604 2.211-1.812 0-1.151-.763-1.727-2.289-1.727a5.46 5.46 0 00-.914.086c-.333.052-.604.11-.813.172l-.96-.516.429-5.82h6.195v2.047h-4.078l-.211 2.242.274-.055a5.44 5.44 0 011.18-.109z" fill="#334257"/><path d="M772 1h88v-2h-88v2zm91 3v48h2V4h-2zm-3 51h-88v2h88v-2zm-91-3V4h-2v48h2zm3 3a3 3 0 01-3-3h-2a5 5 0 005 5v-2zm91-3a3 3 0 01-3 3v2a5 5 0 005-5h-2zm-3-51a3 3 0 013 3h2a5 5 0 00-5-5v2zm-88-2a5 5 0 00-5 5h2a3 3 0 013-3v-2z" fill="#E8EAED"/><path d="M939.992 28.648c0-2.26.477-3.942 1.43-5.046.958-1.105 2.39-1.657 4.297-1.657.651 0 1.161.04 1.531.117v1.93a6.259 6.259 0 00-1.375-.156c-.828 0-1.505.125-2.031.375-.521.25-.912.62-1.172 1.11-.261.489-.414 1.184-.461 2.085h.101c.516-.885 1.342-1.328 2.477-1.328 1.021 0 1.82.32 2.399.961.578.64.867 1.526.867 2.656 0 1.22-.344 2.185-1.032 2.899-.687.708-1.64 1.062-2.859 1.062-.844 0-1.581-.195-2.211-.586-.625-.39-1.109-.96-1.453-1.71-.339-.75-.508-1.654-.508-2.712zm4.125 3.079c.516 0 .912-.172 1.188-.516.276-.349.414-.844.414-1.484 0-.558-.13-.995-.391-1.313-.255-.323-.643-.484-1.164-.484-.49 0-.909.159-1.258.476-.344.318-.515.688-.515 1.11 0 .62.161 1.143.484 1.57.328.427.742.64 1.242.64z" fill="#334257"/><path d="M900 1h88v-2h-88v2zm91 3v48h2V4h-2zm-3 51h-88v2h88v-2zm-91-3V4h-2v48h2zm3 3a3 3 0 01-3-3h-2a5 5 0 005 5v-2zm91-3a3 3 0 01-3 3v2a5 5 0 005-5h-2zm-3-51a3 3 0 013 3h2a5 5 0 00-5-5v2zm-88-2a5 5 0 00-5 5h2a3 3 0 013-3v-2z" fill="#E8EAED"/><path d="M1066.07 32.383c0-.438.12-.768.35-.992.24-.224.58-.336 1.03-.336.43 0 .76.114 1 .343.23.23.35.558.35.985 0 .411-.12.737-.35.976-.24.235-.58.352-1 .352-.44 0-.78-.115-1.02-.344-.24-.234-.36-.562-.36-.984zm4.56 0c0-.438.12-.768.35-.992.24-.224.58-.336 1.03-.336.43 0 .76.114 1 .343.24.23.36.558.36.985 0 .411-.12.737-.36.976-.24.235-.58.352-1 .352-.44 0-.78-.115-1.02-.344-.24-.234-.36-.562-.36-.984zm4.57 0c0-.438.11-.768.35-.992.23-.224.57-.336 1.02-.336.43 0 .77.114 1 .343.24.23.36.558.36.985 0 .411-.12.737-.36.976-.24.235-.57.352-1 .352-.44 0-.78-.115-1.02-.344-.23-.234-.35-.562-.35-.984zm124.28 1.117h-7.98v-1.68l2.87-2.898c.85-.87 1.4-1.471 1.66-1.805.26-.338.45-.65.56-.937.12-.287.18-.584.18-.89 0-.46-.13-.8-.39-1.024-.25-.224-.58-.336-1-.336-.45 0-.88.101-1.29.304-.42.203-.86.493-1.31.868l-1.31-1.555c.56-.48 1.03-.818 1.4-1.016.37-.198.77-.349 1.21-.453.44-.11.93-.164 1.47-.164.71 0 1.34.13 1.89.39.54.261.97.626 1.27 1.094.3.47.45 1.006.45 1.61 0 .526-.09 1.02-.28 1.484-.18.459-.47.93-.86 1.414-.38.485-1.06 1.175-2.04 2.07l-1.47 1.383v.11h4.97V33.5zm7.13 0h-2.41v-6.61l.02-1.085.04-1.188c-.4.401-.68.664-.84.79l-1.31 1.054-1.16-1.453 3.67-2.93h1.99V33.5z" fill="#334257"/><path d="M1156 1h88v-2h-88v2zm91 3v48h2V4h-2zm-3 51h-88v2h88v-2zm-91-3V4h-2v48h2zm3 3c-1.66 0-3-1.343-3-3h-2a5 5 0 005 5v-2zm91-3c0 1.657-1.34 3-3 3v2a5 5 0 005-5h-2zm-3-51c1.66 0 3 1.343 3 3h2a5 5 0 00-5-5v2zm-88-2a5 5 0 00-5 5h2c0-1.657 1.34-3 3-3v-2z" fill="#E8EAED"/><path d="M1348.95 23.93c-.91 0-1.61.343-2.11 1.03-.5.683-.75 1.636-.75 2.86 0 2.547.95 3.82 2.86 3.82.81 0 1.78-.2 2.92-.6v2.03c-.94.39-1.99.586-3.14.586-1.66 0-2.94-.502-3.82-1.508-.88-1.01-1.32-2.458-1.32-4.343 0-1.188.22-2.227.65-3.117.43-.896 1.05-1.581 1.86-2.055.81-.48 1.76-.719 2.85-.719 1.11 0 2.23.268 3.35.805l-.78 1.968c-.43-.203-.86-.38-1.29-.53a3.903 3.903 0 00-1.28-.227zm12.99 9.57h-2.39v-6.945h-2.19c-.17 1.953-.37 3.411-.61 4.375-.24.958-.56 1.653-.96 2.086-.4.427-.92.64-1.56.64-.56 0-1.01-.083-1.36-.25V31.5c.25.104.51.156.76.156.3 0 .55-.213.75-.64.2-.427.38-1.138.53-2.133.17-1 .3-2.373.42-4.117h6.61V33.5zm6.12-7.203c-.5 0-.9.161-1.18.484-.29.318-.46.771-.5 1.36h3.35c-.01-.589-.17-1.042-.46-1.36-.3-.323-.7-.484-1.21-.484zm.34 7.36c-1.41 0-2.51-.389-3.3-1.165s-1.19-1.875-1.19-3.297c0-1.463.37-2.593 1.1-3.39.73-.802 1.75-1.203 3.04-1.203 1.23 0 2.19.351 2.88 1.054.69.703 1.03 1.675 1.03 2.914v1.157h-5.63c.02.677.22 1.205.6 1.585.37.38.9.57 1.58.57a6.6 6.6 0 001.49-.163c.47-.11.96-.284 1.47-.524v1.844a5.47 5.47 0 01-1.34.461c-.47.104-1.05.156-1.73.156zm10.97-1.9v-5.202h-1.79a22.52 22.52 0 01-.54 2.758c-.22.87-.54 1.684-.94 2.445h3.27zm3.66 4.876h-2.14V33.5h-5.87v3.133h-2.14v-4.875h.73c.5-.776.92-1.755 1.26-2.938.34-1.182.57-2.534.71-4.054h6.17v6.992h1.28v4.875zm.24-11.867h2.61l1.65 4.914c.14.427.24.932.29 1.515h.05a6.66 6.66 0 01.33-1.515l1.62-4.914h2.56l-3.7 9.851c-.34.912-.82 1.594-1.45 2.047-.63.453-1.36.68-2.2.68-.41 0-.81-.044-1.21-.133v-1.89c.29.067.6.1.94.1.42 0 .79-.13 1.1-.39.32-.255.56-.643.74-1.164l.14-.43-3.47-8.671zm22.43 4.351c0 1.432-.37 2.547-1.09 3.344-.72.797-1.73 1.195-3.01 1.195-1.15 0-2.07-.323-2.76-.968-.69-.646-1.11-1.576-1.25-2.79h-1.57V33.5h-2.39v-8.734h2.39v3.359h1.6c.15-1.115.58-1.98 1.29-2.594.71-.62 1.62-.93 2.74-.93 1.23 0 2.21.407 2.94 1.22.74.807 1.11 1.906 1.11 3.296zm-5.72 0c0 .87.13 1.526.39 1.969.25.437.67.656 1.26.656.58 0 1-.219 1.25-.656.26-.443.39-1.099.39-1.969 0-.87-.13-1.518-.39-1.945-.26-.432-.68-.649-1.26-.649s-1 .217-1.25.649c-.26.432-.39 1.08-.39 1.945zm20.69 2.64h1.28v4.876h-2.15V33.5h-12.14v-8.734h2.39v6.945h2.93v-6.945h2.38v6.945h2.93v-6.945h2.38v6.992zm8.31 1.743l-.46-1.188h-.07c-.4.506-.81.857-1.24 1.055-.42.193-.97.29-1.66.29-.83 0-1.5-.24-1.98-.72-.48-.479-.72-1.161-.72-2.046 0-.927.32-1.61.97-2.047.65-.443 1.63-.688 2.94-.735l1.51-.047v-.382c0-.886-.45-1.328-1.36-1.328-.69 0-1.51.21-2.46.632l-.79-1.609c1.01-.526 2.12-.79 3.35-.79 1.17 0 2.07.256 2.69.767.63.51.94 1.286.94 2.328v5.82h-1.66zm-.71-4.047l-.92.031c-.69.021-1.21.146-1.55.375-.33.23-.5.578-.5 1.047 0 .672.38 1.008 1.15 1.008.56 0 1-.159 1.32-.477.34-.317.5-.74.5-1.265v-.719zm6.16 4.047h-2.58l2.35-3.453c-.56-.235-.99-.573-1.28-1.016-.28-.442-.43-.963-.43-1.562 0-.844.32-1.506.95-1.985.63-.479 1.5-.718 2.59-.718h4.06V33.5h-2.38v-3.25h-1.31l-1.97 3.25zm.4-6.016c0 .365.14.651.43.86.28.203.66.304 1.12.304h1.33v-2.203h-1.63c-.39 0-.7.097-.92.29a.936.936 0 00-.33.75zM1284 1h216v-2h-216v2zm219 3v48h2V4h-2zm-3 51h-216v2h216v-2zm-219-3V4h-2v48h2zm3 3c-1.66 0-3-1.343-3-3h-2a5 5 0 005 5v-2zm219-3c0 1.657-1.34 3-3 3v2a5 5 0 005-5h-2zm-3-51c1.66 0 3 1.343 3 3h2a5 5 0 00-5-5v2zm-216-2a5 5 0 00-5 5h2c0-1.657 1.34-3 3-3v-2z" fill="#0098D0"/></svg>