<svg width="33" height="32" fill="none" xmlns="http://www.w3.org/2000/svg"><path fill-rule="evenodd" clip-rule="evenodd" d="M32.763 16c0 8.837-7.334 16-16.381 16C7.334 32 0 24.837 0 16S7.334 0 16.382 0c9.047 0 16.381 7.163 16.381 16zm-7.72-4.776l.005.021a16.506 16.506 0 010 7.275l-.006.021c-.437 1.729-2.41 3.583-4.223 3.969l-.02.004a24.096 24.096 0 01-5.72.372l-2.001 2.032c-.495.504-1.367.161-1.367-.537v-1.93c-1.744-.486-3.57-2.255-3.99-3.91l-.005-.02a16.504 16.504 0 010-7.276l.005-.02c.438-1.73 2.411-3.584 4.223-3.97l.021-.004a24.02 24.02 0 018.834 0l.02.004c1.812.386 3.786 2.24 4.223 3.97zm-4.56 9.735c1.19-.26 2.689-1.661 2.981-2.789a14.96 14.96 0 000-6.575c-.292-1.127-1.79-2.53-2.981-2.788a22.37 22.37 0 00-8.203 0c-1.19.259-2.688 1.66-2.981 2.788a14.975 14.975 0 000 6.575c.293 1.128 1.79 2.53 2.98 2.788h.002c.053.01.091.056.091.109v3.195c0 .16.2.239.314.123l1.554-1.558 1.461-1.465a.113.113 0 01.083-.033 22.38 22.38 0 004.699-.37zm-1.687-1.362a2.976 2.976 0 01-.344-.108c-1.679-.68-3.223-1.558-4.447-2.903-.696-.764-1.24-1.628-1.7-2.542a18.427 18.427 0 01-.533-1.193l-.058-.138c-.17-.408.081-.83.346-1.137.25-.289.57-.51.916-.672.271-.127.538-.054.736.17.427.485.82.994 1.138 1.555.195.346.141.768-.213 1.003-.069.046-.133.098-.197.15l-.048.039a.793.793 0 00-.184.19.51.51 0 00-.036.458c.437 1.172 1.173 2.084 2.381 2.575l.052.022c.177.072.356.146.559.123.241-.027.377-.204.514-.383a1.51 1.51 0 01.241-.268c.256-.204.582-.207.858-.037.275.17.542.353.807.538l.055.038c.242.168.482.335.705.527.23.199.31.46.18.729-.238.494-.584.905-1.084 1.167-.096.05-.206.077-.316.105a2.873 2.873 0 00-.153.04 6.825 6.825 0 00-.175-.048zm1.976-5.655c-.387-2.12-2.19-3.543-4.386-3.603h-.127c-.156.009-.294.136-.264.295.032.18.217.199.37.214l.027.002c.077.008.154.015.232.021.171.015.343.03.511.059 1.628.283 2.932 1.605 3.16 3.202.034.242.05.485.068.73l.013.184c.011.154.09.298.267.296.17-.002.26-.148.247-.303l-.01-.136c-.026-.322-.05-.644-.108-.96zm-1.05.629a.697.697 0 01-.02.142c-.059.215-.393.242-.47.025a.63.63 0 01-.026-.207 2.55 2.55 0 00-.337-1.304 2.461 2.461 0 00-1.041-.954 3.048 3.048 0 00-.83-.248 4.692 4.692 0 00-.234-.032l-.143-.018c-.153-.02-.234-.116-.227-.262.007-.138.11-.236.263-.228.504.028.99.134 1.439.366.91.471 1.43 1.215 1.583 2.208l.008.048c.006.03.01.058.013.087l.016.252.007.118a.27.27 0 00-.001.007zm-1.666-.32c.02.165.118.264.301.26a.217.217 0 00.197-.174c.015-.065.008-.136.002-.203v-.006c-.087-.978-.695-1.408-1.547-1.468a.263.263 0 00-.278.207c-.023.134.058.25.204.284.063.015.127.02.191.027a.962.962 0 01.514.173c.19.134.31.338.365.558.024.096.035.196.046.296l.005.046z" fill="#237D26"/></svg>