<svg width="32" height="32" fill="none" xmlns="http://www.w3.org/2000/svg"><path d="M16 0C7.165 0 0 7.165 0 16s7.165 16 16 16 16-7.165 16-16S24.835 0 16 0zm.34 25.316c-.001 0 0 0 0 0h-.005a9.573 9.573 0 01-4.576-1.166l-5.077 1.332 1.359-4.961a9.552 9.552 0 01-1.278-4.786c.002-5.278 4.298-9.573 9.576-9.573a9.515 9.515 0 016.774 2.808 9.514 9.514 0 012.802 6.772c-.002 5.279-4.298 9.574-9.576 9.574z" fill="#237D26"/><path d="M16.342 7.78c-4.39 0-7.961 3.568-7.963 7.956a7.94 7.94 0 001.217 4.234l.19.301-.805 2.936 3.012-.79.291.173a7.947 7.947 0 004.051 1.109h.003c4.387 0 7.958-3.57 7.96-7.957a7.908 7.908 0 00-2.33-5.63 7.907 7.907 0 00-5.626-2.333zm4.681 11.377c-.199.558-1.155 1.068-1.614 1.137a3.283 3.283 0 01-1.508-.095 13.79 13.79 0 01-1.364-.504c-2.4-1.036-3.968-3.452-4.087-3.611-.12-.16-.977-1.298-.977-2.475s.618-1.756.837-1.995a.88.88 0 01.638-.3c.16 0 .32.002.459.008.147.008.344-.055.538.411.2.48.678 1.656.738 1.776.06.12.1.26.02.42-.08.159-.345.503-.598.817-.107.132-.245.25-.105.489s.62 1.022 1.33 1.657c.915.814 1.686 1.067 1.925 1.187.24.12.379.1.518-.06.14-.16.599-.698.758-.938.16-.24.32-.2.538-.12.22.08 1.396.659 1.635.779.24.12.399.18.459.279.06.1.06.579-.14 1.138z" fill="#237D26"/></svg>