<svg width="80" height="80" fill="none" xmlns="http://www.w3.org/2000/svg"><path d="M40.35 31.075h-6.497v4.135h-4.247v6.388h4.247v4.134h6.498v-4.134h4.247V35.21H40.35v-4.135zm1.894 6.49v1.678h-4.247v4.135h-1.79v-4.135H31.96v-1.679h4.247V33.43h1.79v4.134h4.247zM16.841 9.547h2.355V6.804h2.742V4.45h-2.742V1.707H16.84V4.45H14.1v2.354h2.742v2.743zM5.097 19.413H2.743v2.743H0v2.354h2.743v2.743h2.354V24.51h2.742v-2.354H5.097v-2.742zM5.049 8.37h2.354v2.354H5.049V8.37z" fill="#0098D0"/><path d="M79.273 50.681c-1.12-1.703-3.322-2.459-5.252-1.786-1.97.686-3.236 2.69-3.004 4.765l-2.393 1.12a9.104 9.104 0 00-3.531-3.137l.644-1.306c1.842.191 3.644-.97 4.162-2.761.504-1.744-.353-3.622-1.96-4.441-1.625-.828-3.674-.407-4.828 1.006-1.286 1.572-1.072 3.927.463 5.259l-.725 1.47a9.091 9.091 0 00-2.028-.18l.367-.256V18.538L37.102 9.93l-24.086 8.607v31.896l24.086 16.814 15.458-10.79a9.117 9.117 0 00-.4 5.363l-1.723.683c-1.31-1.528-3.652-1.8-5.28-.627-1.493 1.076-2.028 3.115-1.2 4.769.828 1.656 2.784 2.496 4.562 2 1.738-.484 2.959-2.158 2.822-3.968l1.638-.65a9.137 9.137 0 003.325 3.538l-.987 2.283c-1.84-.245-3.683.782-4.439 2.478-.915 2.054-.018 4.542 1.998 5.536a4.293 4.293 0 005.24-1.2c1.39-1.783 1.099-4.427-.64-5.874l.982-2.272a9.113 9.113 0 005.899-.255l.87 1.61c-1.214 1.244-1.404 3.197-.504 4.675 1.024 1.681 3.23 2.378 5.017 1.525 1.66-.791 2.494-2.715 1.997-4.473-.535-1.896-2.474-3.135-4.421-2.814l-.898-1.662c3.154-2.311 4.487-6.514 3.237-10.225l2.233-1.044c1.453 1.948 4.285 2.377 6.255.96 1.932-1.391 2.439-4.14 1.13-6.132zM66.15 44.89c2.213 0 2.183 3.287 0 3.287-2.181 0-2.217-3.287 0-3.287zM47.456 66.607c-2.214 0-2.183-3.287 0-3.287 2.181 0 2.217 3.287 0 3.287zm9.16 7.834c-.326 1.575-2.437 2.026-3.385.728-1.004-1.375.256-3.309 1.913-2.965a1.91 1.91 0 011.473 2.237zM51.63 41.774a4.541 4.541 0 00-1.12 4.669l-13.408 9.36-14.734-10.285V25.58l14.734-5.024 14.734 5.024v16.002l-.206.191zm1.356 4.41a2.165 2.165 0 01-.314-1.626c.402-1.938 3.153-2.312 4.046-.516 1.164 2.34-2.286 4.323-3.732 2.142zm4.406 2.492a4.47 4.47 0 001.441-1.683v2.213l-.964.673-.477-1.203zm-20.29 15.7l-21.731-15.17v-29.01l21.73-7.765 21.732 7.766v22.815c-.847-1.72-2.738-2.739-4.643-2.484V23.896L37.102 18.07l-17.088 5.827v22.85l17.088 11.929 14.722-10.278a4.55 4.55 0 003.357 1.09l.704 1.777-18.783 13.113zm30.85 6.537c2.186 0 2.307 3.43.068 3.345-2.082-.078-2.25-3.345-.068-3.345zm-.316-9.756c-.628 3.027-3.333 5.303-6.432 5.378-2.785.067-5.376-1.635-6.426-4.212-1.026-2.517-.4-5.486 1.553-7.377 2.015-1.95 5.11-2.457 7.638-1.233 2.748 1.33 4.287 4.455 3.667 7.444zm9.98-7.563c-.374 1.798-2.79 2.306-3.862.82-1.129-1.563.297-3.758 2.185-3.367 1.147.238 1.915 1.397 1.676 2.547z" fill="#0098D0"/><path d="M57.327 56.991h2.354v2.354h-2.354v-2.354zM27.054 27.294v2.354H24.7v-2.354h2.354zm0 4.708v2.354H24.7v-2.354h2.354z" fill="#0098D0"/></svg>