<svg width="80" height="80" fill="none" xmlns="http://www.w3.org/2000/svg"><g clip-path="url(#clip0_829:7553)" fill="#C3167C"><path d="M42.941 22.74c0-.68-.038-1.35-.11-2.01h5.374v-2.35h-5.788a18.32 18.32 0 00-4.992-8.736l5.558-6.338-1.765-1.549-5.573 6.355a18.168 18.168 0 00-10.986-3.685 18.155 18.155 0 00-10.264 3.167L8.833 1.252 7.068 2.801l5.473 6.24a18.345 18.345 0 00-5.508 8.834H1.846v2.349H6.55a18.422 18.422 0 00-.174 2.516v8.871H0v2.348h6.377v12.726H1.846v2.348h4.531v4.648c0 2.379.456 4.653 1.283 6.74H0v2.348h8.792a18.44 18.44 0 004.755 5.443l-4.874 4.635 1.618 1.702 5.255-4.997a18.133 18.133 0 007.939 2.403v7.916h2.349v-7.916a18.134 18.134 0 008.062-2.477l5.864 5.577 1.618-1.702-5.495-5.226a18.452 18.452 0 004.342-4.852h9.826v-2.349h-8.603a18.235 18.235 0 001.493-7.245V49.54h5.264v-2.35h-5.264v-2.476h-2.348v8.967c0 8.803-7.148 15.964-15.934 15.964-8.785 0-15.933-7.161-15.933-15.964V22.74c0-8.803 7.148-15.964 15.933-15.964 8.786 0 15.934 7.161 15.934 15.964v13.957h2.348v-2.232h7.11v-2.349h-7.11V22.74z"/><path d="M27.787 12.454c-4.52 0-8.199 3.684-8.199 8.212 0 4.527 3.678 8.21 8.199 8.21 4.52 0 8.199-3.683 8.199-8.21 0-4.528-3.678-8.212-8.199-8.212zm0 14.074c-3.226 0-5.85-2.63-5.85-5.862 0-3.233 2.624-5.863 5.85-5.863 3.226 0 5.85 2.63 5.85 5.863 0 3.232-2.624 5.862-5.85 5.862zm-5.85 12.919a4.161 4.161 0 00-4.154-4.159 4.161 4.161 0 00-4.154 4.16 4.161 4.161 0 004.154 4.159 4.161 4.161 0 004.154-4.16zm-5.96 0c0-.998.81-1.81 1.806-1.81a1.81 1.81 0 010 3.621 1.81 1.81 0 01-1.805-1.81zm11.81 21.391c3.365 0 6.102-2.742 6.102-6.111 0-3.37-2.737-6.111-6.102-6.111s-6.102 2.741-6.102 6.11c0 3.37 2.737 6.112 6.102 6.112zm0-9.873a3.762 3.762 0 010 7.524 3.762 3.762 0 010-7.524zm5.087-18.848h2.349v2.348h-2.349v-2.349zm0 5.475h2.349v2.349h-2.349v-2.349zM14.363 47.763h2.348v2.349h-2.348v-2.349zm0 5.476h2.348v2.349h-2.348v-2.35zm26.213-13.774l2.349-.007.008 2.672-2.35.007-.007-2.672zm25.479-6.021c.626 0 1.262-.055 1.9-.167a10.83 10.83 0 007.032-4.493 10.832 10.832 0 001.817-8.145l-.414-2.342-2.312.407.413 2.343a8.5 8.5 0 01-1.428 6.39 8.498 8.498 0 01-5.516 3.527c-4.65.82-9.098-2.295-9.917-6.944l-2.027-11.494c-.82-4.649 2.295-9.098 6.944-9.917 4.65-.82 9.098 2.295 9.917 6.944l.377 2.135 2.313-.407-.377-2.136C73.732 3.22 68.063-.75 62.14.295a10.83 10.83 0 00-7.032 4.494 10.832 10.832 0 00-1.817 8.145l2.027 11.494c.932 5.286 5.546 9.016 10.738 9.016z"/><path d="M73.249 14.002l.006.038.408 2.313 2.313-.408-.408-2.313-.007-.038-2.313.408zm-11.504 3.943l2.313-.41.408 2.314-2.313.409-.408-2.313zm4.627-.822l2.313-.408.408 2.313-2.313.409-.408-2.314zm-3.118-4.141l2.314-.409.408 2.314-2.313.408-.409-2.313zm9.567 32.869c-5.653-2.057-11.925.868-13.982 6.52L54.847 63.34a10.831 10.831 0 00.375 8.337 10.833 10.833 0 006.145 5.646c1.209.44 2.463.658 3.715.658a10.93 10.93 0 004.622-1.033A10.833 10.833 0 0075.35 70.8l.813-2.235-2.207-.803-.814 2.235a8.498 8.498 0 01-4.431 4.82 8.499 8.499 0 01-6.54.297 8.498 8.498 0 01-4.82-4.432 8.5 8.5 0 01-.297-6.54l3.992-10.968c1.614-4.436 6.536-6.731 10.972-5.117 4.436 1.615 6.73 6.537 5.116 10.972l-.741 2.038 2.207.804.741-2.038c2.058-5.653-.867-11.926-6.52-13.983z"/><path d="M75.576 63.312l-.803 2.207 2.207.803.816-2.243-2.207-.804-.013.037zm-12.726-.176l.803-2.207 2.208.803-.803 2.207-2.208-.803zm4.411 1.599l.804-2.208 2.207.803-.803 2.208-2.207-.803zm-.627-5.142l.803-2.208 2.208.803-.804 2.208-2.207-.803z"/></g><defs><clipPath id="clip0_829:7553"><path fill="#fff" d="M0 0h80v80H0z"/></clipPath></defs></svg>