<svg width="80" height="80" fill="none" xmlns="http://www.w3.org/2000/svg"><path d="M76.25 76.25h2.5v2.5h-2.5v-2.5zm-15 0h12.5v2.5h-12.5v-2.5zm0-5h17.5v2.5h-17.5v-2.5zm0-5h5v2.5h-5v-2.5zm7.5 0h10v2.5h-10v-2.5zm-4.681-12.184l-5.457-19.099-6.076 26.736-2.775-12.953h-3.905c.252-1.916.394-3.859.394-5.826V33.99c0-1.868-.415-3.64-1.141-5.24h3.641v-2.5h-5v-5h-2.5v2.644a12.675 12.675 0 00-5.276-2.4 11.602 11.602 0 01-2.224-6.799V5c0-2.138-2.686-3.75-6.25-3.75S21.25 2.862 21.25 5v11.25a17.53 17.53 0 01-1.081 6 15.408 15.408 0 01-3.919-10.254V5a3.755 3.755 0 00-3.75-3.75A3.755 3.755 0 008.75 5v6.25l-.75-1a3.767 3.767 0 00-3-1.5 3.755 3.755 0 00-3.75 3.75v1.555c0 .825.206 1.645.597 2.37l7.16 13.294C4.19 33.172 1.25 38.815 1.25 44.789a35.621 35.621 0 0018.31 31.12l3.898 2.163a5.39 5.39 0 002.612.678c1.199 0 2.38-.407 3.325-1.15 8.488-6.667 14.091-15.991 16.06-26.35h2.285l4.725 22.049 6.424-28.265 4.542 15.901 4.841-9.685H78.75v-2.5H66.728l-2.66 5.316zM23.75 16.25V8.026c1.032.453 2.314.724 3.75.724s2.718-.271 3.75-.724v6.671c0 2.3.579 4.566 1.646 6.584a12.64 12.64 0 00-8.396 3.702l-1.267 1.267h-2.18c1.744-3.027 2.697-6.499 2.697-10zm3.75-12.5c2.42 0 3.75.939 3.75 1.25 0 .311-1.33 1.25-3.75 1.25S23.75 5.311 23.75 5c0-.311 1.33-1.25 3.75-1.25zM3.75 14.055V12.5A1.252 1.252 0 016 11.75l2.75 3.666v3.334h2.5V5c0-.689.561-1.25 1.25-1.25s1.25.561 1.25 1.25v6.996c0 4.784 1.938 9.344 5.315 12.694-.313.57-.66 1.121-1.035 1.654-2.409.23-4.75.925-6.894 2.057L4.05 15.24a2.51 2.51 0 01-.299-1.185zm7.786 16.981A16.023 16.023 0 0117.5 28.92v1.065c0 4.834-3.932 8.766-8.768 8.766a8.782 8.782 0 01-2.126-.261l-1.372-.344c1.331-2.909 3.493-5.424 6.302-7.109zM43.75 42.924c0 12.849-5.795 24.771-15.898 32.71a2.758 2.758 0 01-.766.418l-3.067-9.205a29.534 29.534 0 01-.98-3.844l6.271-3.136-1.119-2.236-5.532 2.767A29.437 29.437 0 0122.5 57.5c0-3.182.51-6.329 1.517-9.349l.92-2.756-2.372-.791-.919 2.756a31.892 31.892 0 00-.991 3.824l-3.76-2.256-1.286 2.143 4.626 2.776A31.786 31.786 0 0020 57.5c0 3.453.554 6.862 1.645 10.139l2.686 8.06-3.556-1.977A33.117 33.117 0 013.75 44.79c0-1.465.215-2.904.603-4.288L6 40.914c.894.224 1.813.336 2.731.336C14.947 41.25 20 36.196 20 29.983V28.75h3.024l.852 1.491a19.894 19.894 0 0011.87 9.308l8.004 2.287v1.088zm0-3.688l-5.849-1.671a10.578 10.578 0 01-.401-2.86V31.25H35v3.455c0 .676.057 1.346.16 2.009a17.6 17.6 0 01-2.005-.878 10.542 10.542 0 01-.655-3.631V28.75H30v3.455c0 .54.045 1.075.11 1.606a17.487 17.487 0 01-4.063-4.81l-.738-1.292.96-.96a10.173 10.173 0 017.241-2.999c5.646 0 10.24 4.594 10.24 10.24v5.246z" fill="#0098D0"/><path d="M46.25 16.25v7.5h27.5V6.25h-7.5v15h-2.5v-10h-7.5v10h-2.5v-5h-7.5zm22.5-7.5h2.5v12.5h-2.5V8.75zm-10 5h2.5v7.5h-2.5v-7.5zm-7.5 7.5h-2.5v-2.5h2.5v2.5z" fill="#0098D0"/><path d="M71.25 1.25v2.5h5v5h2.5v-7.5h-7.5zm5 25h-5v2.5h7.5v-7.5h-2.5v5zm-32.5-22.5h5v-2.5h-7.5v7.5h2.5v-5z" fill="#0098D0"/></svg>