<svg width="177" height="56" fill="none" xmlns="http://www.w3.org/2000/svg"><path d="M175.255 37.487h-7.949v6.55h-1.744V30.452h1.744v5.399h7.949v-5.399H177v13.585h-1.745v-6.55zm-20.035-5.654c-1.457 0-2.705.532-3.752 1.602-1.048 1.071-1.568 2.367-1.568 3.885 0 .977.239 1.889.714 2.738a5.077 5.077 0 001.935 1.957c.808.46 1.701.69 2.671.69.97 0 1.864-.23 2.67-.69a5.083 5.083 0 001.937-1.957 5.52 5.52 0 00.714-2.738c0-1.518-.525-2.814-1.577-3.885-1.047-1.069-2.295-1.602-3.744-1.602zm.009-1.714c2.098 0 3.842.754 5.222 2.268 1.256 1.377 1.886 3.011 1.886 4.896 0 1.893-.663 3.548-1.992 4.963-1.325 1.415-3.034 2.123-5.116 2.123-2.094 0-3.807-.708-5.132-2.123-1.329-1.414-1.992-3.069-1.992-4.963 0-1.876.628-3.505 1.885-4.882 1.38-1.523 3.128-2.283 5.239-2.283zm-23.652 12.204h11.232l-5.756-12.818-5.476 12.818zm-1.705 4.451h-1.846v-4.452h1.473l7.223-16.655h.638l7.629 16.655h1.423v4.452h-1.847v-2.737h-14.692v2.737h-.001zm-10.625-14.941c-1.457 0-2.705.532-3.753 1.602-1.047 1.071-1.568 2.367-1.568 3.885 0 .977.239 1.889.714 2.738a5.087 5.087 0 001.936 1.957c.808.46 1.701.69 2.671.69.97 0 1.863-.23 2.671-.69a5.08 5.08 0 001.936-1.957 5.53 5.53 0 00.714-2.738c0-1.518-.526-2.814-1.577-3.885-1.047-1.069-2.295-1.602-3.744-1.602zm.009-1.714c2.098 0 3.842.754 5.223 2.268 1.256 1.377 1.884 3.011 1.884 4.896 0 1.893-.662 3.548-1.991 4.963-1.326 1.415-3.034 2.123-5.116 2.123-2.094 0-3.807-.708-5.133-2.123-1.329-1.414-1.991-3.069-1.991-4.963 0-1.876.628-3.505 1.884-4.882 1.381-1.523 3.128-2.283 5.24-2.283zm-16.902 1.688c-1.518 0-2.791.525-3.825 1.578-1.04 1.053-1.557 2.363-1.557 3.927 0 1.028.231 1.954.693 2.772.461.822 1.123 1.47 1.982 1.953.864.482 1.774.72 2.727.72a5.17 5.17 0 002.655-.729 5.323 5.323 0 001.978-2.03 5.485 5.485 0 00.004-5.471 5.215 5.215 0 00-1.966-2.004 5.277 5.277 0 00-2.691-.716zm-7.023-1.355h1.745v2.498c.692-.95 1.487-1.659 2.389-2.128.901-.468 1.905-.703 3.017-.703 1.935 0 3.59.695 4.966 2.08 1.377 1.386 2.065 3.058 2.065 5.007 0 1.997-.684 3.684-2.048 5.078-1.362 1.39-3.008 2.085-4.936 2.085a6.68 6.68 0 01-2.987-.673c-.911-.453-1.732-1.121-2.466-2.012V49h-1.745V30.452zm-10.279 7.342v4.758h1.885c.89 0 1.526-.055 1.906-.17.381-.11.71-.353.979-.729.274-.375.41-.848.41-1.424 0-.741-.235-1.33-.705-1.774-.47-.44-1.09-.661-1.859-.661h-2.616zm0-5.833v4.221H86.2c1.042 0 1.726-.043 2.042-.124.32-.085.619-.29.901-.613.282-.329.423-.758.423-1.3 0-.564-.145-1.033-.44-1.413-.294-.384-.603-.606-.927-.674-.325-.064-.991-.098-2-.098h-1.146v.001zm2.22 12.076h-3.963V30.452h3.902c1.488 0 2.56.34 3.218 1.018.654.682.983 1.48.983 2.392 0 1.377-.61 2.308-1.833 2.799 1.769.626 2.654 1.833 2.654 3.62 0 2.502-1.654 3.756-4.962 3.756zm-17.404-18.37h10.54v1.791h-8.693v5.756h8.616v1.791h-8.616v7.241h8.616v1.79H69.868V25.668zm46.643-13.269c-.476 0-.916.119-1.317.358-.404.236-.724.57-.962 1a2.78 2.78 0 00.003 2.73c.241.435.561.773.967 1.014.406.242.84.363 1.303.363.467 0 .911-.12 1.329-.36.42-.24.742-.563.967-.974.226-.409.339-.87.339-1.383 0-.782-.253-1.435-.761-1.96-.506-.527-1.129-.788-1.868-.788zm3.43-.677v6.78h-.852v-1.166c-.36.445-.761.779-1.207 1a3.245 3.245 0 01-1.462.332c-.941 0-1.744-.348-2.411-1.041-.665-.696-.998-1.539-.998-2.535 0-.973.337-1.807 1.008-2.499.67-.691 1.48-1.039 2.426-1.039.545 0 1.039.117 1.482.351.44.235.828.588 1.164 1.062v-1.247h.85v.002zm-12.921 0h.852v2.857l3.101-2.857h1.172l-3.365 3.094 3.635 3.686h-1.211l-3.062-3.134-.27.242V18.5h-.852v-6.78zm-6.87 0v5.023l4.896-5.023h.067v6.78h-.852v-4.983L99.403 18.5h-.105v-6.78h.852zm-3.612 3.512h-3.885V18.5h-.851v-6.78h.851v2.694h3.885V11.72h.852v6.78h-.852v-3.268zM84.932 11.72v5.023l4.895-5.023h.067v6.78h-.852v-4.983L84.184 18.5h-.105v-6.78h.853zm-2.154 6.78h-.895l-2.248-4.944-2.212 4.944h-.917l3.04-6.78h.151l3.081 6.78zm-12.91-9.168h.915v3.44l3.608-3.44h1.21l-4.335 4.112 4.675 5.056h-1.202l-3.956-4.282V18.5h-.915V9.333z" fill="#039AD4"/><path fill-rule="evenodd" clip-rule="evenodd" d="M27.948 5.803c12.235 0 22.155 9.938 22.155 22.197 0 12.259-9.92 22.196-22.155 22.196C15.712 50.196 5.793 40.26 5.793 28c0-12.26 9.919-22.197 22.155-22.197zm0-5.803c15.434 0 27.947 12.536 27.947 28S43.382 56 27.948 56C12.513 56 0 43.464 0 28 0 12.537 12.513 0 27.948 0z" fill="#039AD4"/><path fill-rule="evenodd" clip-rule="evenodd" d="M27.366 17.5a9.876 9.876 0 018.063 4.165l-1.56 1.44a7.786 7.786 0 00-6.503-3.5c-4.306 0-7.798 3.497-7.798 7.812 0 4.313 3.492 7.81 7.798 7.81 3.651 0 6.717-2.516 7.564-5.912h-6.585v-1.976h6.816v-.002l2.102-.005v.084c0 5.476-4.432 9.917-9.897 9.917-5.467 0-9.899-4.44-9.899-9.917 0-5.477 4.431-9.916 9.899-9.916zm15.137 1.19c1.012 0 1.832.903 1.832 2.017 0 1.115-.82 2.018-1.832 2.018-1.01 0-1.831-.903-1.831-2.018 0-1.114.82-2.018 1.831-2.018zm0 5.25c1.012 0 1.832.904 1.832 2.019 0 1.115-.82 2.018-1.832 2.018-1.01 0-1.831-.903-1.831-2.018 0-1.115.82-2.02 1.831-2.02zm1.673-.607c.749.58 1.238 1.54 1.238 2.626 0 1.771-1.303 3.208-2.911 3.208s-2.91-1.437-2.91-3.208c0-1.087.489-2.046 1.237-2.626-.748-.58-1.238-1.54-1.238-2.626 0-1.771 1.303-3.207 2.911-3.207s2.911 1.436 2.911 3.207c0 1.086-.49 2.046-1.238 2.626z" fill="#039AD4"/></svg>