<svg width="80" height="79" viewBox="0 0 80 79" fill="none" xmlns="http://www.w3.org/2000/svg">
<path d="M31.1931 61.6143L24.9435 65.2446L9.375 56.2021V41.8102" stroke="#0098D0" stroke-width="2" stroke-miterlimit="10" stroke-linecap="round" stroke-linejoin="round"/>
<path d="M12.5508 36.2717L24.9421 29.0739L34.1385 34.4158" stroke="#0098D0" stroke-width="2" stroke-miterlimit="10" stroke-linecap="round" stroke-linejoin="round"/>
<path d="M24.9414 29.0826V10.9975L40.5093 1.95441L52.9 9.15218" stroke="#0098D0" stroke-width="2" stroke-miterlimit="10" stroke-linecap="round" stroke-linejoin="round"/>
<path d="M56.0781 14.6956V30.0724" stroke="#0098D0" stroke-width="2" stroke-miterlimit="10" stroke-linecap="round" stroke-linejoin="round"/>
<path d="M24.9409 10.9975L16.3633 6.14923" stroke="#0098D0" stroke-width="2" stroke-miterlimit="10" stroke-linecap="round" stroke-linejoin="round"/>
<path d="M13.5366 7.86088C15.3022 7.86088 16.7334 6.42096 16.7334 4.64474C16.7334 2.86851 15.3022 1.42859 13.5366 1.42859C11.7711 1.42859 10.3398 2.86851 10.3398 4.64474C10.3398 6.42096 11.7711 7.86088 13.5366 7.86088Z" stroke="#0098D0" stroke-width="2" stroke-miterlimit="10" stroke-linecap="round" stroke-linejoin="round"/>
<path d="M1.42969 38.117C1.42969 33.7101 4.99282 30.1247 9.37323 30.1247" stroke="#0098D0" stroke-width="2" stroke-miterlimit="10" stroke-linecap="round" stroke-linejoin="round"/>
<path d="M9.37471 41.8101C11.4025 41.8101 13.0463 40.1564 13.0463 38.1164C13.0463 36.0763 11.4025 34.4226 9.37471 34.4226C7.34695 34.4226 5.70312 36.0763 5.70312 38.1164C5.70312 40.1564 7.34695 41.8101 9.37471 41.8101Z" stroke="#0098D0" stroke-width="2" stroke-miterlimit="10" stroke-linecap="round" stroke-linejoin="round"/>
<path d="M56.0781 3.00513C60.4579 3.00513 64.0211 6.59048 64.0211 10.9974" stroke="#0098D0" stroke-width="2" stroke-miterlimit="10" stroke-linecap="round" stroke-linejoin="round"/>
<path d="M56.0778 14.6912C58.1056 14.6912 59.7494 13.0374 59.7494 10.9974C59.7494 8.95738 58.1056 7.30365 56.0778 7.30365C54.0501 7.30365 52.4062 8.95738 52.4062 10.9974C52.4062 13.0374 54.0501 14.6912 56.0778 14.6912Z" stroke="#0098D0" stroke-width="2" stroke-miterlimit="10" stroke-linecap="round" stroke-linejoin="round"/>
<path d="M9.37247 56.2021L5.21875 58.5881" stroke="#0098D0" stroke-width="2" stroke-miterlimit="10" stroke-linecap="round" stroke-linejoin="round"/>
<path d="M3.54453 62.0359C4.71253 62.0359 5.65937 61.0832 5.65937 59.9082C5.65937 58.7331 4.71253 57.7806 3.54453 57.7806C2.37653 57.7806 1.42969 58.7331 1.42969 59.9082C1.42969 61.0832 2.37653 62.0359 3.54453 62.0359Z" stroke="#0098D0" stroke-width="2" stroke-miterlimit="10" stroke-linecap="round" stroke-linejoin="round"/>
<path d="M50.2878 50.4867V37.9106C51.1615 37.9106 51.8697 37.1981 51.8697 36.3191V33.7699H38.1562V36.3191C38.1562 37.1981 38.8645 37.9106 39.7381 37.9106V50.4867" stroke="#0098D0" stroke-width="2" stroke-miterlimit="10" stroke-linecap="round" stroke-linejoin="round"/>
<path d="M42.5348 57.3966H36.1995C34.3034 57.3966 32.7656 55.8495 32.7656 53.9419C32.7656 52.0337 34.3034 50.4872 36.1995 50.4872H50.1788" stroke="#0098D0" stroke-width="2" stroke-miterlimit="10" stroke-linecap="round" stroke-linejoin="round"/>
<path d="M43.6237 64.3071H38.3011C36.4043 64.3071 34.8672 62.76 34.8672 60.8524" stroke="#0098D0" stroke-width="2" stroke-miterlimit="10" stroke-linecap="round" stroke-linejoin="round"/>
<path d="M43.6263 71.2171H40.5784C38.6816 71.2171 37.1445 69.6701 37.1445 67.7625" stroke="#0098D0" stroke-width="2" stroke-miterlimit="10" stroke-linecap="round" stroke-linejoin="round"/>
<path d="M72.4349 72.5177C66.1088 72.3808 64.9043 72.8967 64.9043 72.8967C64.9043 72.8967 63.328 73.2074 61.3246 73.8565C55.1271 75.8639 50.7522 76.9487 44.2484 77.1194L42.6604 77.1429C40.7637 77.1429 39.2266 75.5958 39.2266 73.6882" stroke="#0098D0" stroke-width="2" stroke-miterlimit="10" stroke-linecap="round" stroke-linejoin="round"/>
<path d="M50.1797 42.5511C50.516 42.5215 50.8579 42.4844 51.2059 42.4376C54.2483 42.0339 57.3354 42.7556 59.8625 44.5067C61.4658 45.6186 63.2848 46.9499 64.9585 48.3398C64.9585 48.3398 68.3244 51.7685 72.437 51.7685" stroke="#0098D0" stroke-width="2" stroke-miterlimit="10" stroke-linecap="round" stroke-linejoin="round"/>
<path d="M39.2266 73.6882V71.2172" stroke="#0098D0" stroke-width="2" stroke-miterlimit="10" stroke-linecap="round" stroke-linejoin="round"/>
<path d="M37.1445 67.7618V64.1006" stroke="#0098D0" stroke-width="2" stroke-miterlimit="10" stroke-linecap="round" stroke-linejoin="round"/>
<path d="M78.5737 47.8702H74.3826C73.3081 47.8702 72.4375 48.7461 72.4375 49.8272V74.474C72.4375 75.5551 73.3081 76.4316 74.3826 76.4316H78.5737" stroke="#0098D0" stroke-width="2" stroke-miterlimit="10" stroke-linecap="round" stroke-linejoin="round"/>
<path d="M34.8672 60.8519V57.1273" stroke="#0098D0" stroke-width="2" stroke-miterlimit="10" stroke-linecap="round" stroke-linejoin="round"/>
<path d="M39.7383 37.9106H42.9884" stroke="#0098D0" stroke-width="2" stroke-miterlimit="10" stroke-linecap="round" stroke-linejoin="round"/>
</svg>
