<svg width="80" height="80" fill="none" xmlns="http://www.w3.org/2000/svg"><path d="M32.348 17.456a16.114 16.114 0 010-12.427h28.505v12.427H32.348zM22.24 11.242H10.43" stroke="#0098D0" stroke-width="2" stroke-miterlimit="10" stroke-linecap="round"/><path d="M65.028 18.984a2.08 2.08 0 01-2.088 2.071 2.08 2.08 0 01-2.088-2.07V3.498a2.08 2.08 0 012.088-2.07 2.08 2.08 0 012.088 2.07m9.366 11.349v-7.21a2.08 2.08 0 012.089-2.07h0a2.08 2.08 0 012.088 2.07v7.21a2.08 2.08 0 01-2.088 2.071 2.08 2.08 0 01-2.089-2.071z" stroke="#0098D0" stroke-width="2" stroke-miterlimit="10" stroke-linecap="round"/><path d="M60.852 14.335h13.542V8.15H60.852M22.37 12.734a2.182 2.182 0 002.147 1.805h6.927a16.083 16.083 0 010-6.594h-6.927a2.182 2.182 0 00-2.148 1.805 8.56 8.56 0 000 2.984zM3.574 31.724h4.979M1.43 28.429v1.24c0 1.136.93 2.058 2.075 2.058v39.977c0 3.793 3.1 6.867 6.925 6.867 3.824 0 6.925-3.074 6.925-6.867V31.727a2.067 2.067 0 002.075-2.059v-1.24c0-1.136-.93-2.058-2.075-2.058H3.505a2.068 2.068 0 00-2.075 2.06z" stroke="#0098D0" stroke-width="2" stroke-miterlimit="10" stroke-linecap="round"/><path d="M8.497 53.063c1.64 0 3.184-.399 4.543-1.102v19.743c0 1.413-1.163 2.578-2.608 2.578s-2.608-1.165-2.608-2.578V53.04c.222.015.446.023.673.023zm0 0h.001l-.001-1v1s0 0 0 0zm5.543-2.937c-.317.252-.65.483-1 .691l1-.691z" stroke="#0098D0" stroke-width="2"/><path d="M26.832 44.978h4.979m-7.123-3.296v1.24c0 1.137.929 2.058 2.075 2.058v26.724c0 3.792 3.1 6.867 6.925 6.867 3.824 0 6.924-3.075 6.924-6.867V44.98a2.067 2.067 0 002.076-2.058v-1.24c0-1.137-.93-2.059-2.076-2.059H26.763a2.068 2.068 0 00-2.076 2.059z" stroke="#0098D0" stroke-width="2" stroke-miterlimit="10" stroke-linecap="round"/><path d="M31.082 71.704v-5.41a9.856 9.856 0 005.215-1.079v6.49c0 1.413-1.162 2.578-2.608 2.578-1.445 0-2.607-1.165-2.607-2.579z" stroke="#0098D0" stroke-width="2"/><path d="M50.086 44.978h4.979m-7.124-3.296v1.24c0 1.137.93 2.058 2.076 2.058v26.724c0 3.792 3.1 6.867 6.925 6.867 3.824 0 6.924-3.075 6.924-6.867V44.98a2.067 2.067 0 002.076-2.058v-1.24c0-1.137-.93-2.059-2.076-2.059H50.017a2.068 2.068 0 00-2.076 2.059z" stroke="#0098D0" stroke-width="2" stroke-miterlimit="10" stroke-linecap="round"/><path d="M54.336 71.704v-5.41a9.855 9.855 0 005.216-1.079v6.49c0 1.413-1.163 2.578-2.608 2.578s-2.608-1.165-2.608-2.579z" stroke="#0098D0" stroke-width="2"/><path d="M12.693 19.711c0-1.24-2.262-4.31-2.262-4.31s-2.263 3.07-2.263 4.31a2.254 2.254 0 002.263 2.244 2.253 2.253 0 002.262-2.244z" fill="#0098D0"/></svg>