<svg width="80" height="79" fill="none" xmlns="http://www.w3.org/2000/svg"><path d="M31.193 61.614l-6.25 3.63-15.568-9.042V41.81m3.175-5.538l12.392-7.198 9.197 5.342" stroke="#0098D0" stroke-width="2" stroke-miterlimit="10" stroke-linecap="round" stroke-linejoin="round"/><path d="M24.941 29.083V10.998L40.51 1.954 52.9 9.152m3.178 5.544v15.376M24.94 10.998l-8.577-4.849M13.537 7.86a3.206 3.206 0 003.196-3.215 3.206 3.206 0 00-3.196-3.216 3.207 3.207 0 00-3.197 3.216 3.207 3.207 0 003.197 3.216zM1.43 38.117c0-4.407 3.563-7.992 7.943-7.992m.002 11.685c2.027 0 3.671-1.654 3.671-3.694s-1.643-3.693-3.671-3.693c-2.028 0-3.672 1.653-3.672 3.693s1.644 3.694 3.672 3.694zM56.078 3.005c4.38 0 7.943 3.585 7.943 7.992" stroke="#0098D0" stroke-width="2" stroke-miterlimit="10" stroke-linecap="round" stroke-linejoin="round"/><path d="M56.078 14.691c2.028 0 3.671-1.654 3.671-3.694s-1.643-3.693-3.671-3.693c-2.028 0-3.672 1.653-3.672 3.693s1.644 3.694 3.672 3.694zM9.372 56.202L5.22 58.588m-1.675 3.448a2.121 2.121 0 002.114-2.128 2.121 2.121 0 00-2.114-2.127 2.121 2.121 0 00-2.115 2.127c0 1.175.947 2.128 2.115 2.128zm46.743-11.549V37.91c.873 0 1.582-.713 1.582-1.592v-2.55H38.156v2.55c0 .88.709 1.592 1.582 1.592v12.576m2.797 6.911H36.2c-1.897 0-3.434-1.547-3.434-3.455 0-1.908 1.537-3.455 3.434-3.455h13.979m-6.555 13.82H38.3c-1.897 0-3.434-1.547-3.434-3.455m8.76 10.365h-3.048c-1.896 0-3.434-1.547-3.434-3.454m35.291 4.755c-6.326-.137-7.53.379-7.53.379s-1.577.31-3.58.96c-6.198 2.007-10.573 3.092-17.077 3.262l-1.588.024c-1.896 0-3.433-1.547-3.433-3.455" stroke="#0098D0" stroke-width="2" stroke-miterlimit="10" stroke-linecap="round" stroke-linejoin="round"/><path d="M50.18 42.551c.336-.03.678-.067 1.026-.113a12.33 12.33 0 018.656 2.069c1.604 1.112 3.423 2.443 5.096 3.833 0 0 3.366 3.428 7.479 3.428m-33.21 21.92v-2.47m-2.082-3.456V64.1" stroke="#0098D0" stroke-width="2" stroke-miterlimit="10" stroke-linecap="round" stroke-linejoin="round"/><path d="M78.574 47.87h-4.191a1.95 1.95 0 00-1.945 1.957v24.647c0 1.081.87 1.958 1.945 1.958h4.19m-43.706-15.58v-3.725m4.871-19.217h3.25" stroke="#0098D0" stroke-width="2" stroke-miterlimit="10" stroke-linecap="round" stroke-linejoin="round"/></svg>