<svg width="80" height="80" fill="none" xmlns="http://www.w3.org/2000/svg"><path d="M39.992 8.018v-3.22m-1.597 1.61h3.195m-4.955 21.635l-1.572 2.733a4.33 4.33 0 01-2.328 1.93l-5.723 1.99a6.29 6.29 0 00-.774.24l-.092.034c-2.89 1.094-4.75 3.95-4.75 7.06l-.978 8.41m22.945-22.397l1.573 2.733a4.33 4.33 0 002.328 1.93l5.723 1.99c.21.046.482.133.774.24l.091.034c2.891 1.094 4.75 3.95 4.75 7.06l.978 8.41M47.5 45.573h6.28" stroke="#0098D0" stroke-width="2" stroke-miterlimit="10" stroke-linecap="round" stroke-linejoin="round"/><path d="M31.015 12.78c.091 2.25.853 9.158 3.165 12.877 1.361 2.107 3.518 3.352 5.81 3.352 2.293 0 4.45-1.244 5.81-3.352 1.82-2.817 2.536-8.457 2.778-11.056a1.52 1.52 0 00-1.218-1.635c-2.878-.562-5.683-.82-8.616-.956-2.908-.134-6.174-.629-8.053-3.122V4.532c0-1.714 1.379-3.103 3.08-3.103h12.445c1.701 0 3.08 1.389 3.08 3.103v6.267" stroke="#0098D0" stroke-width="2" stroke-miterlimit="10" stroke-linecap="round" stroke-linejoin="round"/><path d="M53.782 10.427h11.153c2.411 0 4.366 1.97 4.366 4.399v35.041c0 2.43-1.955 4.4-4.366 4.4H15.068c-2.411 0-4.365-1.97-4.365-4.4V14.826c0-2.43 1.954-4.4 4.365-4.4h12.066" stroke="#0098D0" stroke-width="2" stroke-miterlimit="10" stroke-linecap="round" stroke-linejoin="round"/><path d="M25.055 54.266L22.39 61.05h35.218l-2.664-6.785m9.693 11.93l5.1 9.272c.767 1.394-.234 3.104-1.816 3.104H12.078c-1.58 0-2.582-1.71-1.815-3.104l5.1-9.272h49.274z" stroke="#0098D0" stroke-width="2" stroke-miterlimit="10" stroke-linecap="round" stroke-linejoin="round"/></svg>