<svg width="80" height="80" fill="none" xmlns="http://www.w3.org/2000/svg"><path d="M21.587 37.12l-1.955 3.37a5.37 5.37 0 01-2.893 2.38l-7.114 2.452a8.052 8.052 0 00-.962.297l-.114.042c-3.593 1.35-5.905 4.869-5.905 8.705L1.43 64.734M29.95 37.12l1.955 3.37a5.366 5.366 0 002.892 2.38l7.115 2.452c.262.058.598.165.961.297l.114.042c3.593 1.35 5.905 4.869 5.905 8.705l1.214 10.368" stroke="#0098D0" stroke-width="2" stroke-miterlimit="10" stroke-linecap="round" stroke-linejoin="round"/><path d="M14.602 20.182c.112 2.772 1.06 9.41 3.933 13.995 1.692 2.6 4.373 4.133 7.223 4.133 2.849 0 5.53-1.534 7.222-4.133 2.262-3.472 3.45-9.417 3.45-13.368" stroke="#0098D0" stroke-width="2" stroke-miterlimit="10" stroke-linecap="round" stroke-linejoin="round"/><path d="M21.013 14.202c4.502 5.353 9.201 2.193 15.416 6.608l.443-2.81c.461-2.926-.087-5.959-1.712-8.435-2.09-3.185-5.63-5.28-9.645-5.28-3.413 0-6.483 1.514-8.61 3.924-2.403 2.722-3.314 6.455-2.66 10.027l.355 1.946c3.394-1.52 6.074-4.288 7.162-7.842m-5.024 30.529l8.797 7.329 9.261-7.329M55.39 26.512h3.513l1.535 3.895 1.659-3.895 1.656-3.894 1.536 3.894h3.455m7.19 14.795H48.198a2.64 2.64 0 01-2.64-2.638v-1.718h33.015v1.718a2.637 2.637 0 01-2.639 2.638z" stroke="#0098D0" stroke-width="2" stroke-miterlimit="10" stroke-linecap="round" stroke-linejoin="round"/><path d="M76.423 36.95V19.84a2.488 2.488 0 00-2.488-2.487H50.197a2.487 2.487 0 00-2.486 2.486V36.95m14.356 4.357v27.788a6.62 6.62 0 01-6.623 6.62H32.412a6.62 6.62 0 01-6.623-6.62m-9.834-8.135a2.665 2.665 0 10.001-5.33 2.665 2.665 0 00-.001 5.33zm9.835 0a2.665 2.665 0 10.002-5.33 2.665 2.665 0 00-.001 5.33z" stroke="#0098D0" stroke-width="2" stroke-miterlimit="10" stroke-linecap="round" stroke-linejoin="round"/><path d="M35.623 60.96a2.665 2.665 0 10.001-5.33 2.665 2.665 0 00-.001 5.33zm-19.67 0l.986 2.302a9.626 9.626 0 0017.696 0l.986-2.302m-9.831 0v4.068" stroke="#0098D0" stroke-width="2" stroke-miterlimit="10" stroke-linecap="round" stroke-linejoin="round"/></svg>