<svg width="80" height="80" fill="none" xmlns="http://www.w3.org/2000/svg"><path d="M40 28.419v8.943m5.543-9.582l3.354 7.137M34.456 27.78l-3.354 7.137M22.81 59.056C14.236 53.455 8.57 43.784 8.57 32.793 8.57 15.47 22.641 1.429 40 1.429c17.358 0 31.428 14.042 31.428 31.364 0 10.99-5.663 20.659-14.235 26.26" stroke="#0098D0" stroke-width="2" stroke-miterlimit="10" stroke-linecap="round" stroke-linejoin="round"/><path d="M61.438 71.941l-9.285-27.395H27.847L18.562 71.94c-1.103 3.255 1.323 6.63 4.766 6.63h33.344c3.443 0 5.87-3.375 4.766-6.63zM27.844 44.545a16.812 16.812 0 01-4.77-11.752c0-9.327 7.577-16.889 16.923-16.889 9.347 0 16.923 7.561 16.923 16.889 0 4.568-1.818 8.713-4.77 11.753" stroke="#0098D0" stroke-width="2" stroke-miterlimit="10" stroke-linecap="round" stroke-linejoin="round"/><path d="M48.841 49.155l3.336 9.842a44.903 44.903 0 00-24.354 0l3.336-9.842H48.84z" stroke="#0098D0" stroke-width="2"/></svg>