<svg width="80" height="80" viewBox="0 0 80 80" fill="none" xmlns="http://www.w3.org/2000/svg">
<path d="M40 28.4189V37.3619" stroke="#0098D0" stroke-width="2" stroke-miterlimit="10" stroke-linecap="round" stroke-linejoin="round"/>
<path d="M45.543 27.7794L48.8972 34.9175" stroke="#0098D0" stroke-width="2" stroke-miterlimit="10" stroke-linecap="round" stroke-linejoin="round"/>
<path d="M34.4564 27.7794L31.1016 34.9175" stroke="#0098D0" stroke-width="2" stroke-miterlimit="10" stroke-linecap="round" stroke-linejoin="round"/>
<path d="M22.8108 59.0556C14.2353 53.4546 8.57031 43.7836 8.57031 32.7927C8.57031 15.4709 22.6412 1.42859 39.999 1.42859C57.3568 1.42859 71.4275 15.4709 71.4275 32.7927C71.4275 43.7824 65.7642 53.4515 57.1917 59.0526" stroke="#0098D0" stroke-width="2" stroke-miterlimit="10" stroke-linecap="round" stroke-linejoin="round"/>
<path d="M61.4379 71.941L52.1529 44.5457L27.8468 44.5451L18.5621 71.941C17.4589 75.1963 19.8849 78.5714 23.3284 78.5714H56.6719C60.1154 78.5708 62.5411 75.1963 61.4379 71.941Z" stroke="#0098D0" stroke-width="2" stroke-miterlimit="10" stroke-linecap="round" stroke-linejoin="round"/>
<path d="M27.844 44.5451C24.8913 41.5052 23.0742 37.3613 23.0742 32.7926C23.0742 23.4658 30.6507 15.9041 39.9972 15.9041C49.3438 15.9041 56.9205 23.4652 56.9205 32.7926C56.9205 37.3613 55.1023 41.5058 52.1501 44.5457" stroke="#0098D0" stroke-width="2" stroke-miterlimit="10" stroke-linecap="round" stroke-linejoin="round"/>
<path d="M48.841 49.1554L52.177 58.9967C44.2148 56.7533 35.7847 56.7534 27.823 58.997L31.1586 49.1549L48.841 49.1554Z" stroke="#0098D0" stroke-width="2"/>
</svg>
