<svg width="80" height="80" fill="none" xmlns="http://www.w3.org/2000/svg"><path d="M62.243 36.25c1.312 9.708 2.734 19.846 12.864 21.074 0 0-5.632 9.728-17.884 7.61m-37.909 0C7.061 67.052 1.43 57.324 1.43 57.324c14.996-1.817 10.71-22.651 15.617-33.7 6.182-13.92 25.311-16.535 36.35-7.832" stroke="#0098D0" stroke-width="2" stroke-miterlimit="10" stroke-linecap="round" stroke-linejoin="round"/><path d="M55.606 40.682c0 9.26-.943 16.608-5.757 24.057-2.717 4.207-7.022 6.69-11.598 6.69-4.577 0-8.881-2.483-11.6-6.69-4.615-7.422-5.53-19.48-5.71-23.967-.413-10.198 11.465-16.48 21.779-8.268.078.062.159.128.243.198m19.178-20.375L47.845 26.73a2.273 2.273 0 000 3.198l3.346 3.371" stroke="#0098D0" stroke-width="2" stroke-miterlimit="10" stroke-linecap="round" stroke-linejoin="round"/><path d="M72.009 22.268L57.713 36.671a2.233 2.233 0 01-3.174 0l-1.01-1.018-3.678 3.706a1.888 1.888 0 01-2.683 0l-1.991-2.006a1.921 1.921 0 010-2.702l3.678-3.707m-2.683 7.412l-6.059 6.104m36.668-21.505L61.461 7.52m-9.484 15.048l3.072 3.095m.174-6.365l3.072 3.095m.174-6.365l3.073 3.096m9.677-1.772l5.442-5.483m-9.641 1.254l5.442-5.483m6.109 6.155l-8.02-8.08" stroke="#0098D0" stroke-width="2" stroke-miterlimit="10" stroke-linecap="round" stroke-linejoin="round"/><path d="M20.642 25.239h0c-.718 1.616-1.216 3.556-1.62 5.723 1.938-1.83 4.194-3.346 6.286-4.42h0a16.242 16.242 0 017.462-1.8c2.113 0 4.249.4 6.334 1.18l8.126-9.28c-2.731-1.249-5.823-1.91-8.97-1.91-1.798 0-3.61.215-5.376.656l-12.242 9.85zm0 0c2.18-4.907 6.5-8.417 12.242-9.851l-12.242 9.85z" stroke="#0098D0" stroke-width="2"/></svg>