<svg width="80" height="80" fill="none" xmlns="http://www.w3.org/2000/svg"><path d="M75.437 65.658l-1.505 1.29-7.379-9.487 8.221-11.744-2.048-1.434-8.75 12.5a1.25 1.25 0 00.037 1.484l.945 1.215-2.988 2.476-3.04-9.12 1.954-1.954a1.25 1.25 0 00.234-1.443l-1.25-2.5a1.25 1.25 0 00-1.78-.501l-.675.421-.42-1.2a3.77 3.77 0 00-3.695-2.505l-.46-1.906h3.412a1.255 1.255 0 001.04-.556 15.958 15.958 0 0118.548-6.217l.825-2.36a18.457 18.457 0 00-21.068 6.633h-5.889a32.2 32.2 0 00-8.14 1.047l-4.432-4.431a1.253 1.253 0 00-1.665-.093L33.5 36.849a13.943 13.943 0 00-8.803-3.098H2.5v2.5h22.197c.88 0 1.757.098 2.614.295a12.19 12.19 0 00-5.616 1.73l-.792.475H2.5v2.5H20v10H2.5v2.5h18.75a1.249 1.249 0 001.25-1.25V50h2.205l.401.2a32.202 32.202 0 00-3.417 4.93L3.52 58.538l.46 2.456 18.1-3.394h.001l4.534 4.534 1.768-1.768-4.333-4.333a29.496 29.496 0 012.573-3.74L37.977 75H2.5v2.5h59.301a9.902 9.902 0 006.441-2.383l8.821-7.56-1.626-1.899zm-34.42-22.874l1.19 1.191a13.448 13.448 0 01-6.604 5.688l-.734-1.472-.132-.261a15.896 15.896 0 006.28-5.146zm-4.86-4.859l3.065 3.064a13.37 13.37 0 01-2.299 2.59 3.095 3.095 0 00-.29-1.86l-.019-.036a3.04 3.04 0 00-2.733-1.69h-.31l.095-.074 2.492-1.994zM25 47.5h-2.5v-6.792l.481-.29a9.664 9.664 0 017.411-1.082l-1.173.938A1.25 1.25 0 0030 42.5h.002l3.878-.006h.001a.553.553 0 01.496.303l.017.036a.62.62 0 01-.206.794c-1.074.71-2.382 1.582-2.382 1.582a1.253 1.253 0 00-.425 1.6l.519 1.036-4.225.846-2.116-1.06A1.262 1.262 0 0025 47.5zM40.773 75L28.781 51.017l4.277-.855.823 1.647a1.252 1.252 0 001.583.602l1.06-.425a15.927 15.927 0 008.345-7.677 1.252 1.252 0 00-.235-1.443l-.989-.99a29.544 29.544 0 016.061-.626h.56l.617 2.555-1.582.527a3.767 3.767 0 00-2.452 4.467l1.938 7.754c.055.22.169.42.33.581l2.17 2.17.643 9.004A9.876 9.876 0 0055.249 75H40.773zm25.842-1.78a7.396 7.396 0 01-12.192-5.09l-.676-9.47a1.25 1.25 0 00-.363-.794l-2.255-2.255-1.855-7.418a1.256 1.256 0 01.818-1.49l2.967-.988a1.255 1.255 0 011.575.773l.936 2.675a1.251 1.251 0 001.843.647l.834-.521.232.464-1.863 1.863a1.249 1.249 0 00-.302 1.28l3.591 10.773-1.953 1.619 1.596 1.924 6.945-5.756 5.539 7.12-5.417 4.643z" fill="#0098D0"/><path d="M17.5 50a1.25 1.25 0 100-2.5 1.25 1.25 0 000 2.5zM20 32.5h40a1.25 1.25 0 001.25-1.25V3.75A1.25 1.25 0 0060 2.5H20a1.25 1.25 0 00-1.25 1.25v27.5A1.25 1.25 0 0020 32.5zM21.25 5h37.5v25h-37.5V5z" fill="#0098D0"/><path d="M56.25 6.25h-32.5A1.25 1.25 0 0022.5 7.5v20a1.25 1.25 0 001.25 1.25h32.5a1.25 1.25 0 001.25-1.25v-20a1.25 1.25 0 00-1.25-1.25zm-1.25 20H25V8.75h30v17.5z" fill="#0098D0"/><path d="M40 24.35a16.741 16.741 0 0011.92-4.93 1.25 1.25 0 000-1.769l-7.071-7.07a1.25 1.25 0 00-1.768 0 4.362 4.362 0 01-6.161 0 1.25 1.25 0 00-1.768 0l-7.07 7.07a1.25 1.25 0 00-.001 1.768A16.743 16.743 0 0040 24.35zm-7.453-7.63c.581.471 1.206.886 1.865 1.238l1.177-2.205a9.246 9.246 0 01-1.26-.813l1.788-1.788a6.874 6.874 0 007.767 0l5.346 5.346a14.385 14.385 0 01-18.46 0l1.777-1.777z" fill="#0098D0"/><path d="M40 16.852a9.448 9.448 0 01-2.208-.262l-.585 2.43c.915.22 1.852.332 2.793.332v-2.5zm5.588 1.106l-1.177-2.205a9.314 9.314 0 01-2.204.837l.585 2.43a11.815 11.815 0 002.796-1.062z" fill="#0098D0"/></svg>