<svg width="80" height="80" fill="none" xmlns="http://www.w3.org/2000/svg"><path d="M61.041 45.779c0-11.112-20.505-38.636-20.505-38.636S20.031 34.667 20.031 45.779c0 11.111 9.18 20.119 20.505 20.119s20.505-9.007 20.505-20.12zM1.43 63.871h18.43m-9.657 8.986h63.539M56.05 17.524h11.645M51.652 7.143h26.919" stroke="#0098D0" stroke-width="2" stroke-miterlimit="10" stroke-linecap="round" stroke-linejoin="round"/><path d="M29.929 54.237h0c-.879.053-1.757.057-2.631.016a15.9 15.9 0 0013.24 7.032c8.74 0 15.82-6.975 15.82-15.505v0c.001-1.222-.406-2.934-1.187-5.041-.546-1.474-1.26-3.1-2.1-4.828-1.119 3.243-2.706 6.347-4.912 9.045l-18.23 9.281zm0 0c7.033-.43 13.814-3.879 18.23-9.28l-18.23 9.28z" stroke="#0098D0" stroke-width="2"/></svg>