<svg width="80" height="80" fill="none" xmlns="http://www.w3.org/2000/svg"><path d="M76.805 42.325a3.164 3.164 0 011.766 2.836 3.176 3.176 0 01-3.184 3.166h-45.62a3.175 3.175 0 01-3.185-3.166 3.175 3.175 0 013.184-3.167h10.877m-3.235-2.274a4.647 4.647 0 001.061-3.906c-.472-2.539-2.926-4.215-5.48-3.745-2.552.471-4.238 2.91-3.765 5.45a4.648 4.648 0 001.02 2.152m24.462 1.679h1.018a4.413 4.413 0 004.338-3.55l6.52-2.818 5.154 5.584a2.12 2.12 0 001.648.784c1.782 0 2.767-2.056 1.643-3.432l-5.848-6.397a3.619 3.619 0 00-3.84-1.111l-6.746 2.586H45.884a4.36 4.36 0 00-1.398.23l-.175.06c-1.139.384-2.11 1.202-2.564 2.31-.2.487-.31 1.02-.31 1.578 0 2.306 1.88 4.176 4.2 4.176h9.069m1.164-4.387H45.547M60.91 41.35h8.258M13.816 12.857h22.119m0 52.857H13.816" stroke="#0098D0" stroke-width="2" stroke-miterlimit="10" stroke-linecap="round" stroke-linejoin="round"/><path d="M47.77 28.612c-2.007-9.279-6.55-15.754-11.835-15.754C28.79 12.858 23 24.69 23 39.286s5.79 26.428 12.935 26.428c2.586 0 4.995-1.55 7.016-4.222M14.364 12.857C7.221 12.857 1.43 24.69 1.43 39.285c0 14.596 5.791 26.429 12.934 26.429" stroke="#0098D0" stroke-width="2" stroke-miterlimit="10" stroke-linecap="round" stroke-linejoin="round"/><path d="M75.387 48.327L69.168 58.39H30.723" stroke="#0098D0" stroke-width="2" stroke-miterlimit="10" stroke-linecap="round" stroke-linejoin="round"/></svg>