<svg width="80" height="80" fill="none" xmlns="http://www.w3.org/2000/svg"><path d="M62.289 60.857a2.447 2.447 0 011.207 3.231 2.42 2.42 0 01-3.21 1.215m-5.989-1.015c-1.422.127-14.27 1.447-19.077 1.722a12.645 12.645 0 01-3.26-.23c-3.164-.65-10.855-2.4-16.718.074 0 0-2.323 1.08-4.927-.203-1.174-.58-2.387-.203-3.034.764-.391.584.449.926 1.555 1.682 2.641 1.803 4.933 1.59 7.068 1.59" stroke="#0098D0" stroke-width="2" stroke-miterlimit="10" stroke-linecap="round" stroke-linejoin="round"/><path d="M59.206 58.676c-.28-8.326 1.515-17.913 1.515-17.913.369-1.976-.11-3.663-.861-5.275-2.157-4.63-2.869-8.819-2.89-12.242-.049-7.676 7.077-13.562 14.484-11.727.233.059.469.122.707.193 3.246.966 5.53 3.906 5.865 7.297 2.053 20.82-2.172 42.395-4.475 50.973-1.096 4.081-4.709 6.965-8.908 7.106-14.56.489-24.93-2.445-36.666-2.99a20.653 20.653 0 00-5.101.377C8.562 77.407 1.43 66.771 1.43 66.771c0-.832.525-1.518 1.229-1.709 1.39-.376 3.21.454 4.96.954m70.594-25.254h-17.49m-1.36 11.056h17.71M36.139 9.06v17.858c0 2.711-2.184 4.91-4.88 4.91h-9.368c-2.695 0-4.88-2.198-4.88-4.91V9.06" stroke="#0098D0" stroke-width="2" stroke-miterlimit="10" stroke-linecap="round" stroke-linejoin="round"/><path d="M30.072 31.828v3.426a2.07 2.07 0 01-2.063 2.077h-2.872a2.07 2.07 0 01-2.063-2.077v-3.426M44.19 49.185c6.152-2.222 5.115-7.112 2.654-8.676-1.552-.985-3.753-.774-5.091.488-1.794 1.693-1.774 4.408-1.053 6.955.947 3.347 3.247 6.138 6.238 7.883 1.922 1.121 7.669 4.21 12.074 6.462" stroke="#0098D0" stroke-width="2" stroke-miterlimit="10" stroke-linecap="round" stroke-linejoin="round"/><path d="M26.574 37.33v1.047c0 8.513 6.711 13.548 14.865 11.541M17.012 15.854h4.205m-4.205 4.59h4.205m-4.205 4.591h4.205M36.702 9.06H16.444c-1.822 0-3.3-1.487-3.3-3.32V2.856h26.857V5.74a3.31 3.31 0 01-3.3 3.32z" stroke="#0098D0" stroke-width="2" stroke-miterlimit="10" stroke-linecap="round" stroke-linejoin="round"/></svg>