<svg width="80" height="80" fill="none" xmlns="http://www.w3.org/2000/svg"><path d="M76.933 0H3.07A2.738 2.738 0 00.336 2.734v21.26a1.172 1.172 0 102.344 0V2.734a.39.39 0 01.39-.39h30.27v32.769c-2.153-.864-3.958-2.384-5.119-4.36a11.144 11.144 0 00-10.248-5.502 11.12 11.12 0 00-7.302 3.292 11.125 11.125 0 00-3.234 7.328 11.08 11.08 0 003.077 8.238 11.082 11.082 0 004.958 3.016c-1.643 1.851-1.884 4.394-1.02 6.716-.287.304-.514 1.047-1.111.842l-.645-.222a2.93 2.93 0 00-3.698 1.779l-.475 1.328a6.42 6.42 0 00.092 4.566l1.726 4.28c.117.289.176.593.176.905v10.337H3.07a.391.391 0 01-.39-.39V29.463a1.172 1.172 0 10-2.344 0v47.803A2.738 2.738 0 003.07 80h73.863a2.738 2.738 0 002.734-2.734V2.734A2.738 2.738 0 0076.933 0zM35.684 18.797c1.364.599 2.84.9 4.317.9 1.477 0 2.953-.301 4.318-.9v7.846c-2.617 1.596-6.018 1.596-8.635 0v-7.846zm8.635-2.636c-2.617 1.596-6.018 1.596-8.635 0V8.316a10.75 10.75 0 004.317.899c1.477 0 2.953-.3 4.318-.9v7.846zM40 30.178c1.477 0 2.953-.3 4.318-.9v6.487a25.343 25.343 0 01-8.635 0v-6.486a10.75 10.75 0 004.317.899zm4.32-27.834V5.68c-2.617 1.596-6.018 1.596-8.635 0V2.344h8.635zM12.86 77.656V67.32c0-.613-.117-1.213-.346-1.782l-1.727-4.28a4.078 4.078 0 01-.058-2.9l.475-1.328a.578.578 0 01.729-.352l.645.222a2.905 2.905 0 003.316-1.053l.84-1.165c.25-.344.292-.797.112-1.182-1.19-2.546-.375-5.154 2.147-5.922 4.548.234 7.072 4.397 7.391 8.781-1.166 1.273-3.263 1.637-5.343.895a2.026 2.026 0 00-2.34.716l-1.939 2.685c-.25.347-.382.757-.382 1.185v15.817h-3.52zm40.508-18.55c1.724.967 3.967 1.153 6.17.426l1.739 2.409v15.715H18.725V61.941l1.739-2.41c2.203.728 4.446.541 6.17-.425.811 3.381 3.858 5.903 7.484 5.903a7.671 7.671 0 005.883-2.735 7.672 7.672 0 005.884 2.735c3.626 0 6.672-2.522 7.484-5.903zm10.253 18.55V61.84c0-.428-.133-.838-.383-1.186L61.3 57.967a2.025 2.025 0 00-2.34-.714c-2.08.742-4.179.377-5.345-.898.36-5.564 3.84-8.567 7.396-8.777 2.56.78 3.316 3.418 2.145 5.92-.18.386-.138.839.111 1.183l.841 1.165a2.905 2.905 0 003.317 1.053l.643-.222a.578.578 0 01.73.352l.475 1.328a4.08 4.08 0 01-.058 2.9l-1.727 4.28a4.743 4.743 0 00-.346 1.782v10.337h-3.52zm13.701-.39a.39.39 0 01-.39.39h-7.447V67.32c0-.312.059-.616.176-.905l1.726-4.28a6.42 6.42 0 00.092-4.566l-.475-1.328a2.931 2.931 0 00-3.7-1.78l-.642.222a.574.574 0 01-.655-.209l-.456-.631c.863-2.323.622-4.866-1.02-6.717a11.084 11.084 0 004.957-3.015 11.08 11.08 0 003.077-8.238c-.242-5.234-4.173-9.646-9.347-10.492a1.172 1.172 0 00-.379 2.313c4.088.668 7.194 4.153 7.385 8.287a8.757 8.757 0 01-2.43 6.511 8.746 8.746 0 01-6.382 2.73c-3.019 0-5.708 1.352-7.572 3.804-1.678 2.208-2.603 5.15-2.603 8.287a5.36 5.36 0 01-5.353 5.353A5.338 5.338 0 0141.74 60.7a2.238 2.238 0 00-1.739-.82c-.678 0-1.312.3-1.739.82a5.338 5.338 0 01-4.144 1.965 5.36 5.36 0 01-5.354-5.353c0-3.136-.924-6.079-2.602-8.287-1.864-2.452-4.553-3.803-7.572-3.803-2.434 0-4.7-.97-6.381-2.73a8.759 8.759 0 01-2.431-6.512c.206-4.464 3.861-8.148 8.321-8.39a8.81 8.81 0 018.101 4.35c1.88 3.2 5.12 5.424 8.893 6.102 3.257.585 6.56.585 9.817 0 3.772-.678 7.013-2.902 8.893-6.103a8.886 8.886 0 014.309-3.723 1.172 1.172 0 00-.878-2.173 11.243 11.243 0 00-5.453 4.71c-1.16 1.976-2.965 3.496-5.119 4.36V2.343h30.27c.216 0 .391.176.391.391v74.532z" fill="#0098D0"/><path d="M48.897 40.086c-5.986 2.945-11.806 2.945-17.793 0a2.247 2.247 0 00-2.544.377 2.25 2.25 0 00-.553 2.515C29.493 46.615 32.26 53.385 40 53.385c7.742 0 10.508-6.77 11.993-10.407a2.25 2.25 0 00-.552-2.515 2.248 2.248 0 00-2.544-.377zM40 51.041c-5.612 0-7.91-4.3-9.747-8.762 6.468 3.121 13.025 3.122 19.494 0C47.91 46.74 45.613 51.04 40 51.04zM8.754 7.951h3.293a1.172 1.172 0 100-2.344H8.754a1.172 1.172 0 100 2.344zm0 5.012h10.162a1.172 1.172 0 100-2.343H8.754a1.172 1.172 0 100 2.343zm0 5.013h10.162a1.172 1.172 0 100-2.344H8.754a1.172 1.172 0 100 2.344z" fill="#0098D0"/></svg>