<svg width="80" height="80" fill="none" xmlns="http://www.w3.org/2000/svg"><path d="M71.802 29.783a2.233 2.233 0 002.218-1.973l1.88-15.996H60.91l1.88 15.996a2.233 2.233 0 002.218 1.973h6.794zM25.004 61.136v7.872a6.71 6.71 0 006.71 6.71h29.983a6.71 6.71 0 006.709-6.71v-34.45" stroke="#0098D0" stroke-width="2" stroke-miterlimit="10" stroke-linecap="round" stroke-linejoin="round"/><path d="M68.404 34.559a2.526 2.526 0 01-2.474-2.015l-.57-2.761h6.089l-.571 2.761a2.526 2.526 0 01-2.474 2.015zm7.493-22.745h1.439c.777 0 1.36-.71 1.212-1.472l-.705-3.615a3.018 3.018 0 00-2.964-2.441H61.926a3.02 3.02 0 00-2.963 2.44l-.705 3.616a1.234 1.234 0 001.212 1.472h1.438M39.753 61.136h-29.5a2.621 2.621 0 01-2.62-2.622v-5.518a2.621 2.621 0 012.62-2.62h29.5a2.62 2.62 0 012.62 2.62v5.518a2.62 2.62 0 01-2.62 2.621zm-19.183-5.38h8.866m15.231-14.102H5.337a3.907 3.907 0 01-3.907-3.907V15.602a3.907 3.907 0 013.907-3.907h39.33a3.906 3.906 0 013.907 3.906v22.146a3.906 3.906 0 01-3.907 3.907zM6.676 16.649h4.207m-4.207 4.044H8.78" stroke="#0098D0" stroke-width="2" stroke-miterlimit="10" stroke-linecap="round" stroke-linejoin="round"/><path d="M30.752 18.58a4.564 4.564 0 00-.85-.145c-3.023-.23-4.38 2.815-4.38 2.815s-1.325-3.06-4.352-2.86a4.638 4.638 0 00-3.804 2.488c-.479.925-.756 2.191-.245 3.773a6.13 6.13 0 00.8 1.602c.131.19.272.375.423.55.666.776 1.934 2.02 3.203 3.088 0 0 3.155 2.583 3.907 4.294.771-1.703 3.953-4.253 3.953-4.253a33.688 33.688 0 002.563-2.34M13.35 22.2l-6.022 7.717a24.854 24.854 0 0015.012 6.67m6.258-.097a24.833 24.833 0 0014.075-6.573l-4.614-5.912" stroke="#0098D0" stroke-width="2" stroke-miterlimit="10" stroke-linecap="round" stroke-linejoin="round"/><path d="M35.767 17.927l-3.208 2.728 1.45 1.705-4.064 3.458m-4.941 24.557v-8.721" stroke="#0098D0" stroke-width="2" stroke-miterlimit="10" stroke-linecap="round" stroke-linejoin="round"/></svg>