<svg width="80" height="80" fill="none" xmlns="http://www.w3.org/2000/svg"><path d="M76.15 27.262v45.393c0 1.69-1.365 3.06-3.05 3.06H6.902a3.055 3.055 0 01-3.05-3.06V27.262" stroke="#0098D0" stroke-width="2" stroke-miterlimit="10" stroke-linecap="round"/><path d="M35.516 29.552c-11.028-.11-22.041-.652-32.953-2.505a1.367 1.367 0 01-1.133-1.35V14.866c0-1.69 1.366-3.06 3.05-3.06h71.042c1.685 0 3.05 1.37 3.05 3.06v10.833c0 .666-.479 1.238-1.133 1.35-10.912 1.852-21.925 2.375-32.954 2.504a549.52 549.52 0 01-8.97 0z" stroke="#0098D0" stroke-width="2" stroke-miterlimit="10" stroke-linecap="round"/><path d="M56.814 11.806V7.868a3.577 3.577 0 00-3.571-3.582H26.759a3.577 3.577 0 00-3.572 3.582v3.938m22.669 59.603h18.296c2.455 0 4.075-2.56 3.029-4.785l-8.354-17.766a7.397 7.397 0 01-.704-3.148v-6.909h0c.656 0 1.186-.532 1.186-1.188v-.66c0-.657-.53-1.188-1.185-1.188H50.46c-.655 0-1.186.532-1.186 1.188v.66c0 .657.531 1.188 1.186 1.188v6.909a7.4 7.4 0 01-.703 3.148l-3.913 8.32m12.279-18.377h-2.775m2.776 4.146h-2.776m2.776 4.147h-2.776M13.945 39.42h3.365m-4.814-2.25v.846c0 .777.628 1.406 1.403 1.406v27.297a4.684 4.684 0 004.68 4.689c2.583 0 4.679-2.1 4.679-4.689V39.422c.775 0 1.403-.63 1.403-1.406v-.846c0-.776-.629-1.406-1.403-1.406H13.9c-.776 0-1.404.63-1.404 1.406zm17.164 11.3h3.365m-4.815-2.25v.846c0 .776.63 1.406 1.404 1.406v18.247a4.684 4.684 0 004.68 4.689c2.584 0 4.679-2.1 4.679-4.689V48.472c.775 0 1.403-.63 1.403-1.406v-.846c0-.776-.629-1.406-1.403-1.406h-9.359c-.775 0-1.403.63-1.403 1.406z" stroke="#0098D0" stroke-width="2" stroke-miterlimit="10" stroke-linecap="round"/><path d="M75.014 20.63a380.725 380.725 0 00-70.022 0" stroke="#0098D0" stroke-width="2"/></svg>