<svg width="80" height="80" fill="none" xmlns="http://www.w3.org/2000/svg"><path d="M33.34 18.905l1.8-2.24c4.04-4.959.514-12.408-5.857-12.38-6.372.03-9.829 7.512-5.746 12.433L39.931 36.47l4.665-4.178L27.534 12c-1.765-2.127-2.12-4.728-1.441-7.003m-7.167 31.57l10.444-12.82m-3.4 24.044l16.377 4.22a10.62 10.62 0 01-1.995 7.837l-16.375-4.22" stroke="#0098D0" stroke-width="2" stroke-miterlimit="10" stroke-linecap="round" stroke-linejoin="round"/><path d="M41.383 58.153l5.311 1.37a5.633 5.633 0 001.059-4.16l-5.312-1.368a10.609 10.609 0 01-1.058 4.158zm6.25-.605l9.908 2.554m-30.731-15.6l-3.67 14.415m2.392-9.399l-6.077-1.566.256-1.003a1.457 1.457 0 00-1.043-1.773 1.446 1.446 0 00-1.761 1.05l-.814 3.195-.813 3.196a1.457 1.457 0 001.043 1.772c.774.2 1.562-.27 1.761-1.05l.255-1.003 6.077 1.565m36.874 4.512a2.499 2.499 0 011.928 2.954 2.484 2.484 0 01-2.937 1.94m-6.567-.756c-1.795.16-17.172 1.291-32.234 1.245-4.456 0-3.707-4.435-13.015-6.799a2.378 2.378 0 00-1.12-.005l-.076.018c-1.692.399-2.44 2.446-1.354 3.81a1.5 1.5 0 00.104.121" stroke="#0098D0" stroke-width="2" stroke-miterlimit="10" stroke-linecap="round" stroke-linejoin="round"/><path d="M58.74 56.805c-.287-8.526 1.551-18.343 1.551-18.343.377-2.023-.113-3.75-.882-5.401-2.21-4.74-2.938-9.03-2.96-12.535-.05-7.86 7.248-13.887 14.833-12.008.24.06.48.125.724.198 3.325.989 5.665 4 6.007 7.47 2.102 21.32-2.225 43.413-4.583 52.196-1.122 4.179-4.823 7.132-9.122 7.276-16.248.545-27.401-3.071-40.821-3.148l-14.13-.03c-2.193 0-2.526-1.098-7.736-7.978a.94.94 0 01.275-1.38l3.577-2.053c.616-.353.765-.114 4.107 1.68.625.335.86 1.118.522 1.744a1.272 1.272 0 01-1.693.538l-1.802-.906m53.686-25.663h17.912M58.898 49.783h18.137" stroke="#0098D0" stroke-width="2" stroke-miterlimit="10" stroke-linecap="round" stroke-linejoin="round"/></svg>