<svg width="80" height="80" fill="none" xmlns="http://www.w3.org/2000/svg"><path d="M22.657 6.892C16.022 8.579 10.798 13.825 9.115 20.49c-.596 2.358 1.208 4.645 3.63 4.645h.076c1.715 0 3.192-1.178 3.624-2.846 1.02-3.922 4.094-7.01 7.999-8.031a3.758 3.758 0 002.823-3.631v-.098c0-2.427-2.268-4.234-4.61-3.638z" stroke="#0098D0" stroke-width="2" stroke-miterlimit="10" stroke-linecap="round" stroke-linejoin="round"/><path d="M30.854 34.268H7.804a3.527 3.527 0 01-3.519-3.535V5.088a3.527 3.527 0 013.519-3.536h23.05a3.528 3.528 0 013.52 3.536v25.645a3.528 3.528 0 01-3.52 3.535zm-9.12 3.399v4.44h-6.246v-4.44m3.125 4.44v6.238" stroke="#0098D0" stroke-width="2" stroke-miterlimit="10" stroke-linecap="round" stroke-linejoin="round"/><path d="M22.34 24.958a.607.607 0 00.606-.608.607.607 0 00-.606-.609.607.607 0 00-.606.609c0 .336.272.608.606.608zm4.925-4.86a.606.606 0 00.605-.608.606.606 0 00-.605-.608.606.606 0 00-.605.608c0 .336.271.608.605.608zm.906 6.702a.606.606 0 00.605-.608.607.607 0 00-.605-.608.607.607 0 00-.605.608c0 .336.271.608.605.608zm5.579 32.168H16.52a3.172 3.172 0 01-3.165-3.18 3.173 3.173 0 013.165-3.18h22.414m-5.181 12.72h-4.905a3.172 3.172 0 01-3.164-3.18m8.067 9.54h-2.809a3.172 3.172 0 01-3.165-3.18m37.16 4.379c-5.83-.127-6.94.348-6.94.348s-1.453.286-3.299.883a62.678 62.678 0 01-17.653 3.003l-2.673.022a3.172 3.172 0 01-3.165-3.18M30.8 49.752a3.777 3.777 0 01-1.304-2.857c0-1.879 1.064-2.874 2.11-3.19a5.22 5.22 0 01.291-.078c1.06-.251 2.172-.113 3.178.307 1.795.748 5.453 1.907 10.297 1.265a11.373 11.373 0 017.978 1.905c1.477 1.023 3.153 2.249 4.695 3.528 0 0 3.102 3.156 6.892 3.156m-33.73 20.175v-2.275m-3.43-3.18v-3.37m-2.093-2.99v-3.18m50.031-8.769H66.73c-.99 0-1.793.806-1.793 1.8v22.687c0 .995.803 1.801 1.793 1.801h8.985" stroke="#0098D0" stroke-width="2" stroke-miterlimit="10" stroke-linecap="round" stroke-linejoin="round"/></svg>