<svg width="80" height="80" fill="none" xmlns="http://www.w3.org/2000/svg"><path d="M46.127 32.078s1.12-2.586 3.678-2.419a3.92 3.92 0 013.216 2.105c.405.782.64 1.851.207 3.189a5.177 5.177 0 01-.676 1.354c-.11.161-.23.317-.357.465-.564.656-1.635 1.709-2.708 2.61 0 0-2.725 2.185-3.36 3.63-.636-1.446-3.361-3.63-3.361-3.63-1.073-.902-2.144-1.954-2.708-2.61a5.467 5.467 0 01-1.034-1.82c-.433-1.337-.197-2.406.208-3.188a3.92 3.92 0 013.216-2.105c2.558-.167 3.678 2.42 3.678 2.42z" stroke="#0098D0" stroke-width="2" stroke-miterlimit="10" stroke-linecap="round"/><path d="M43.358 32.414a1.14 1.14 0 00-.803-.265 1.426 1.426 0 00-1.165.762c-.188.362-.21.754-.066 1.196.063.196.157.385.283.564.05.073.1.14.152.199.166.193.45.488.793.811a2.884 2.884 0 01.805-3.267z" fill="#0098D0"/><path d="M78.573 78.566H8.109a6.68 6.68 0 01-6.68-6.68V1.43h70.465a6.674 6.674 0 016.678 6.67v70.465zM7.793 7.787h23.115M7.793 13.292h11.554m3.657 11.048s4.468 4.349 14.469 2.967" stroke="#0098D0" stroke-width="2" stroke-miterlimit="10" stroke-linecap="round"/><path d="M35.145 33.893c-6.77.163-9.692-.64-12.141-1.944-1.807-.963-2.852-3.005-2.214-5.01.006-.02.017-.038.027-.056m-2.305 6.327c-.451 1.921.42 4.04 2.23 4.906 3.276 1.569 6.77 2.392 13.033 2.177m-17.467-.098s-.236 2.45 3.1 4.174c0 0 4.442 2.518 12.752 2.518m-17.39-.427s.191 3.04 4.278 4.268c0 0 5.556 1.55 10.383 1.81m-11.985-2.219s-2.963 7.301.984 12.094c2.268 2.754 6.203 3.335 8.924 1.028 2.322-1.97 5.576-4.242 9.73-4.242M57 24.34s-.832.81-2.582 1.62M57 24.34s-.487-3.652-5.002-6.343c-1.873-1.115-4.203-1.166-6.152-.189-1.654.831-3.88 1.717-5.844 1.717-1.964 0-4.19-.886-5.845-1.717-1.948-.978-4.278-.926-6.15.19-4.517 2.69-5.003 6.342-5.003 6.342M56.55 31.4c1.808-.963 3.64-1.572 2.665-4.461-.007-.02-.018-.038-.027-.056m2.299 6.327c.452 1.921.52 3.558-2.229 4.906a19.969 19.969 0 01-3.551 1.34m7.989.739s.237 2.45-3.1 4.174c0 0-2.971 1.685-8.6 2.298m13.236-.207s-.192 3.04-4.278 4.268c0 0-5.557 1.55-10.384 1.81m11.985-2.219s2.963 7.301-.984 12.094c-2.268 2.754-6.203 3.335-8.923 1.028-2.323-1.97-5.576-4.242-9.73-4.242" stroke="#0098D0" stroke-width="2" stroke-miterlimit="10" stroke-linecap="round"/><path d="M37.082 46.887v14.417a1.46 1.46 0 001.459 1.459h2.918a1.46 1.46 0 001.46-1.46V46.888m-5.837 19.379v.71c0 .79.642 1.432 1.433 1.432h2.971c.792 0 1.432-.642 1.432-1.432v-.71m-5.836 5.418v.709c0 .79.642 1.432 1.433 1.432h2.971c.792 0 1.432-.642 1.432-1.432v-.71m.221-55.652s-.375-.731-.535-1.975a1.275 1.275 0 00-1.256-1.127h-2.69c-.645 0-1.173.487-1.255 1.127-.16 1.243-.536 1.975-.536 1.975" stroke="#0098D0" stroke-width="2" stroke-miterlimit="10" stroke-linecap="round"/></svg>