<svg width="80" height="80" fill="none" xmlns="http://www.w3.org/2000/svg"><g clip-path="url(#clip0_986:7150)" stroke="#0098D0" stroke-width="2" stroke-miterlimit="10" stroke-linecap="round"><path d="M64.387 40.962a6.657 6.657 0 012.852-5.492 6.652 6.652 0 01-2.88-5.448 6.654 6.654 0 013.19-5.707 6.29 6.29 0 01-2.439-4.944c-.003-.726.323-1.78.757-2.857.578-1.44-.821-2.87-2.285-2.346-.97.348-1.902.603-2.545.606a6.319 6.319 0 01-5.21-2.695 6.323 6.323 0 01-5.172 2.722 6.325 6.325 0 01-5.235-2.727 6.317 6.317 0 01-5.147 2.689 6.325 6.325 0 01-5.247-2.742 6.32 6.32 0 01-5.135 2.673 6.324 6.324 0 01-5.456-3.069 6.317 6.317 0 01-4.96 2.436c-.72.003-2.265-.523-3.747-1.102-1.371-.536-2.761.731-2.338 2.138.376 1.25.696 2.47.7 3.01a6.302 6.302 0 01-2.691 5.192 6.3 6.3 0 01.048 10.36 6.3 6.3 0 012.737 5.166c.005.952-.575 2.436-1.222 3.792-.451.947.53 1.926 1.479 1.473 1.36-.65 2.85-1.236 3.803-1.24h.011a6.322 6.322 0 015.198 2.677 6.323 6.323 0 015.173-2.725 6.325 6.325 0 015.204 2.684 6.325 6.325 0 016.001-2.682c2.838.344 5.138 2.637 5.486 5.468a6.307 6.307 0 01-2.758 6.044 6.3 6.3 0 01-.155 10.622 6.306 6.306 0 012.391 6.041c-.332 2.087-1.735 3.854-3.617 4.712v.09a2.782 2.782 0 01-2.771 2.79 2.781 2.781 0 01-2.797-2.765l-.002-.281a6.29 6.29 0 01-3.4-5.564 6.302 6.302 0 012.99-5.386 6.294 6.294 0 01-2.463-4.965c-.003-.621.391-1.714.904-2.869.613-1.38-.782-2.807-2.165-2.194-1.126.5-2.186.883-2.79.886a6.319 6.319 0 01-5.197-2.677 6.322 6.322 0 01-5.173 2.724h-.011a6.321 6.321 0 01-5.198-2.677 6.327 6.327 0 01-5.997 2.677c-2.82-.343-5.112-2.61-5.479-5.422a6.3 6.3 0 012.635-6.009 6.298 6.298 0 01-.049-10.359 6.3 6.3 0 01-.048-10.359 6.3 6.3 0 01-2.737-5.167 6.31 6.31 0 013.405-5.625A6.288 6.288 0 012.646 7.8c-.015-3.487 2.805-6.328 6.3-6.344l.045.002.044-.002a6.323 6.323 0 015.212 2.694 6.324 6.324 0 0110.569.263c.16-.207.329-.408.513-.593a6.321 6.321 0 014.473-1.876 6.326 6.326 0 015.304 2.83 6.316 6.316 0 015.11-2.642 6.324 6.324 0 015.235 2.726 6.321 6.321 0 015.147-2.688 6.322 6.322 0 015.211 2.694 6.321 6.321 0 015.17-2.72 6.32 6.32 0 015.399 2.983c.16-.207.329-.407.514-.592a6.339 6.339 0 015.542-1.794c2.628.417 4.755 2.521 5.196 5.14a6.306 6.306 0 01-2.603 6.262 6.3 6.3 0 012.742 5.17c.01 2.203-1.12 4.132-2.826 5.27a6.648 6.648 0 01-.066 10.87 6.653 6.653 0 012.88 5.448 6.662 6.662 0 01-3.293 5.778"/><path d="M75.128 74.73c-2.842 2.128-6.759 1.7-8.75-.957L52.176 54.811c-1.99-2.657-1.301-6.537 1.54-8.665 2.842-2.129 6.76-1.7 8.75.957L76.67 66.065c1.99 2.657 1.3 6.536-1.541 8.665zM58.992 63.91a22.17 22.17 0 0010.29-7.707"/></g><defs><clipPath id="clip0_986:7150"><path fill="#fff" d="M0 0h80v80H0z"/></clipPath></defs></svg>