<svg width="151" height="41" fill="none" xmlns="http://www.w3.org/2000/svg"><path d="M11.604 11.096C9.211 11.096.65 12.12.014 14.612c-.228.879 2.36-.781 2.198 5.079-.05 1.97.081 3.564.081 5.176 0 3.418-.081 6.153-.146 8.578-.05 1.758-.098 3.288-.098 4.672 0 2.377 2.018 2.377 2.67 2.377 1.53 0 3.5-.472 3.58-.489.522-.13.863-.65.766-1.172 0-.032-.521-2.88-.521-4.46 0-.732.049-2.572.081-3.972.57.066 1.27.114 1.97.114 7.52 0 12.013-3.711 12.013-9.93.016-6.12-3.907-9.49-11.004-9.49zm-.765 13.64c-.83 0-1.611-.08-2.165-.162-.049-3.777-.179-6.43-.244-7.65a22.869 22.869 0 012.8-.163c3.141 0 4.737 1.302 4.737 3.857 0 1.758-.538 4.119-5.128 4.119zm63.451 8.302a1.05 1.05 0 00-.7-.39 1 1 0 00-.764.228c-1.075.879-2.898 1.92-5.535 1.92-4.33 0-6.918-3.271-6.918-8.725 0-5.371 2.686-9.115 6.544-9.115 1.383 0 2.376.26 3.288.325 7.374.538 4.493-8.35 3.907-7.487-1.547 2.246-4.167 1.041-6.983 1.188-4.119.228-7.586 1.66-10.028 4.818-2.165 2.784-3.353 6.593-3.353 10.695 0 8.725 5.307 14.357 13.51 14.357 4.087 0 8.319-1.563 8.319-4.167-.033-1.221-.537-2.67-1.286-3.647zM99.358 9.55c-.586 0-.114 1.236-1.904 1.546-1.84.309-11.72.26-13.43.228-1.611-.033-3.125-.066-4.362-.066-1.693 0-2.556.847-2.556 2.524 0 .846.147 2.279.163 2.344.05.472.423.846.895.911 1.465.196 4.444.358 6.967.44-.016 2.392-.08 5.241-.13 8.025-.065 3.841-.13 7.813-.13 10.613 0 .749.033 2.116.277 2.865 0 .016.016.032.016.049.52 1.302 1.644 1.48 2.8 1.48.814 0 2.1-.08 3.06-.341.52-.13.847-.651.749-1.188 0-.016-.293-1.498-.293-2.735a733.828 733.828 0 01-.082-8.09c0-1.693.017-3.565.033-5.486.016-1.693.033-3.434.033-5.127 1.692 0 4.28.146 5.615-.163 4.754-1.107 3.028-7.83 2.28-7.83zm50.397 24.563c-1.123 0-1.286 0-2.312-2.051-2.148-4.265-3.32-6.284-4.688-7.472 2.735-4.232 4.949-6.739 7.944-9.734a1.02 1.02 0 00.016-1.432c-.032-.033-.96-.993-1.937-1.726-1.172-.879-3.011-1.416-5.03 1.107-2.197 2.767-4.688 6.82-6.494 9.946a53.18 53.18 0 00-1.97-.082c.081-4.9.146-7.846.146-7.927.114-2.312-.879-3.207-3.906-3.5-2.947-.277-6.365 2.621-4.574 2.442 2.246-.212 1.937 2.149 1.969 5.127-.016 4.737-.081 10.304-.146 15.285l-.049 3.175c0 1.92.505 3.206 2.979 3.206.83 0 2.034-.13 2.979-.325.26-.049.504-.212.651-.44.146-.228.195-.504.146-.781 0-.016-.325-1.481-.325-2.735 0-1.79 0-4.98.065-8.367 1.611.066 2.214.245 2.897.765.814.652 1.677 2.442 2.686 4.51a99.6 99.6 0 00.944 1.937c1.905 3.809 2.881 5.485 6.023 5.485 2.1 0 3.174-1.074 3.174-3.207a14.39 14.39 0 00-.211-2.36c-.049-.488-.472-.846-.977-.846z" fill="#80C41C"/><path d="M35.207 9.126c7.65-1.188 5.877-5.34 7.44-8.513.048-.098 0-.228-.131-.244-1.449-.163-8.611-1.107-12.632.862-4.28 2.1-1.872 8.79-4.378 12.925-.26.44 1.107-.163 1.22-.212 2.1-.944 2.898-3.955 8.481-4.818zM25.066 6.408c-.781-3.614-3.646-3.174-5.893-6.186-.065-.098-.211-.081-.26.016-1.205 2.393-2.67 5.698-1.677 8.318.977 2.621 4.412 1.71 6.12 6.772.066.18.326.18.391-.016.977-2.784 1.986-5.844 1.319-8.904z" fill="#237D26"/><path d="M112.234 10.835c-3.809 0-6.853 1.563-9.05 3.956 0 0 .016-.017.016 0 .44.667 4.623-1.09 9.181.456 3.207 1.09 5.518 3.857 6.185 7.178a17.24 17.24 0 01.326 3.32c0 5.421-2.735 9.344-6.511 9.344-4.2 0-6.804-3.483-6.804-9.083 0-5.355 2.148-6.332 6.12-6.592-.277-1.319-1.677-2.328-3.451-2.735-3.483-.798-6.95 1.27-8.204 4.623-.618 1.628-1.074 3.337-1.074 5.014 0 9.148 4.965 14.617 13.283 14.617 8.643 0 13.315-7.976 13.315-15.464-.016-9.164-4.981-14.634-13.332-14.634z" fill="#80C41C"/><path d="M37.86 10.835c-3.809 0-6.853 1.563-9.05 3.956 0 0 .016-.017.016 0 .44.667 4.623-1.09 9.18.456 3.208 1.09 5.519 3.857 6.186 7.178.212 1.075.326 2.198.326 3.32 0 5.421-2.735 9.344-6.511 9.344-4.2 0-6.804-3.483-6.804-9.083 0-5.355 2.148-6.332 6.12-6.592-.277-1.319-1.677-2.328-3.45-2.735-3.484-.798-6.951 1.27-8.205 4.623-.619 1.628-1.074 3.337-1.074 5.014 0 9.148 4.964 14.617 13.282 14.617 8.644 0 13.316-7.976 13.316-15.464-.016-9.164-4.998-14.634-13.332-14.634z" fill="#FF0003"/></svg>